<svg xmlns="http://www.w3.org/2000/svg" viewBox="0 0 4253 3378">
  <path fill="transparent" stroke="none" fill-rule="evenodd" data-name="Gildrath" data-faction="The Gilded League" data-color="2" data-culture="Continuance" d="M 983,986 980,1018 958,1032 950,1019 909,1035 910,1071 903,1081 916,1094 900,1103 885,1098 879,1110 882,1121 871,1121 845,1150 845,1140 816,1144 819,1129 840,1114 822,1098 786,1104 784,1115 772,1116 762,1125 751,1110 743,1118 727,1120 721,1087 693,1101 693,1094 679,1091 678,1076 666,1063 656,1062 650,1019 644,1037 628,1010 626,1025 594,1028 589,1020 576,1046 568,1046 552,1029 554,1006 547,1024 528,1027 528,1002 512,990 500,997 494,1025 457,1021 438,1031 439,1037 457,1045 434,1049 409,1038 408,1022 399,1014 401,980 390,997 371,1001 366,1013 349,1013 338,1003 321,999 320,984 306,966 302,983 286,987 276,977 284,951 252,931 253,920 244,912 208,914 188,891 179,848 165,874 162,911 173,922 159,954 165,966 150,978 148,968 125,964 130,987 125,995 118,993 122,1005 108,1019 113,1039 100,1074 78,1061 70,1034 64,1037 46,1025 32,1046 32,1117 3,1103 0,4 878,4 1030,99 1092,150 1167,232 1390,230 1582,252 1587,252 1626,184 1691,106 1765,39 1814,4 3347,4 3347,450 2904,450 2896,441 2902,411 2881,407 2871,409 2863,430 2846,425 2836,409 2832,430 2803,430 2781,420 2774,432 2776,442 2747,439 2717,446 2710,400 2694,401 2678,371 2657,365 2638,371 2628,364 2627,400 2615,401 2618,410 2607,409 2605,419 2589,420 2589,437 2611,445 2605,450 970,450 970,464 954,453 952,479 946,483 954,504 948,520 958,537 959,559 973,563 967,582 954,592 992,596 1005,590 1008,603 1008,589 1028,587 1036,600 1055,585 1063,594 1057,614 1078,618 1099,613 1104,618 1099,654 1129,682 1132,694 1123,722 1131,742 1129,762 1115,770 1115,788 1082,792 1055,810 1025,817 1016,827 1015,840 1025,847 1024,860 1008,891 984,916 990,929 986,945 991,972 Z M 2182,267 2177,273 2163,271 2160,285 2183,295 2203,286 2202,275 2190,276 Z M 2026,273 2016,279 2029,278 2031,273 Z M 2367,282 2356,284 2351,298 2325,306 2324,317 2338,319 2339,331 2355,322 2366,332 2381,316 2384,294 Z M 2454,304 2437,310 2427,327 2447,353 2502,366 2512,348 2525,344 2519,327 2507,333 2495,328 2500,315 2478,315 Z M 2521,317 2514,322 2526,322 Z M 2580,373 2584,387 2585,375 Z M 2110,377 2104,378 2104,385 2114,388 2118,379 Z M 303,450 331,476 324,502 338,535 312,552 292,553 282,566 288,572 288,583 282,587 303,588 316,577 329,586 350,566 356,544 370,540 370,553 377,554 383,570 381,578 364,588 371,599 392,592 398,581 411,580 421,591 420,602 429,603 435,612 408,619 419,631 431,624 438,632 449,632 460,640 460,651 474,645 480,664 503,655 511,660 521,647 545,646 571,624 562,611 578,611 589,599 589,586 576,585 565,563 554,564 547,549 555,526 579,512 576,493 605,490 610,501 613,491 625,490 631,501 642,502 640,516 654,511 662,518 659,531 674,540 677,531 715,528 695,518 695,512 717,503 717,481 757,459 755,450 Z M 629,811 612,818 606,847 596,846 588,835 565,833 552,855 578,862 602,850 610,861 621,860 622,873 646,870 657,860 666,862 666,869 655,871 640,889 620,879 584,884 576,897 577,912 594,913 602,904 618,903 637,920 656,917 673,889 703,883 717,865 709,849 689,857 661,855 656,847 633,837 635,819 Z"/>
  <path fill="transparent" stroke="none" fill-rule="evenodd" data-name="Crimsonar" data-faction="The Crimson Sovereignty" data-color="4" data-culture="Continuance" d="M 2183,294 2160,285 2163,271 2177,273 2185,267 2190,276 2202,275 2203,286 Z"/>
  <path fill="transparent" stroke="none" fill-rule="evenodd" data-name="Scarlathos" data-faction="The Crimson Sovereignty" data-color="4" data-culture="Continuance" d="M 2018,275 2031,273 2029,278 2016,279 Z"/>
  <path fill="transparent" stroke="none" fill-rule="evenodd" data-name="Vermeil" data-faction="The Crimson Sovereignty" data-color="4" data-culture="Continuance" d="M 2384,298 2381,316 2366,332 2355,322 2339,331 2338,319 2324,317 2325,306 2351,298 2356,284 2372,282 Z"/>
  <path fill="transparent" stroke="none" fill-rule="evenodd" data-name="Rubrith" data-faction="The Crimson Sovereignty" data-color="4" data-culture="Continuance" d="M 2447,351 2427,327 2437,310 2453,304 2478,315 2500,315 2495,328 2507,333 2519,327 2525,337 2525,344 2512,348 2502,366 2485,366 Z"/>
  <path fill="transparent" stroke="none" fill-rule="evenodd" data-name="Helios" data-faction="The Crimson Sovereignty" data-color="4" data-culture="Continuance" d="M 2570,353 2574,356 2568,362 Z"/>
  <path fill="transparent" stroke="none" fill-rule="evenodd" data-name="Flamaris" data-faction="The Crimson Sovereignty" data-color="4" data-culture="Continuance" d="M 2589,431 2589,420 2605,419 2607,409 2618,410 2615,401 2627,400 2628,364 2638,371 2653,365 2678,371 2694,401 2710,400 2717,446 2747,439 2776,442 2774,432 2781,420 2803,430 2832,430 2836,409 2846,425 2862,430 2872,408 2900,410 2896,441 2922,458 2910,461 2895,481 2887,482 2884,497 2917,523 2930,518 2935,511 2931,503 2949,491 2961,509 2964,527 2988,525 2994,531 2990,557 2981,555 2991,559 2992,566 2982,586 2973,588 2978,598 3005,611 3003,636 3019,638 3032,628 3045,630 3053,606 3046,596 3059,588 3064,575 3073,573 3072,567 3076,578 3092,571 3111,581 3108,571 3114,565 3134,559 3136,575 3155,587 3166,626 3166,654 3155,661 3153,672 3157,698 3150,706 3139,705 3130,723 3115,707 3079,706 3070,698 3047,698 3038,692 3007,705 2917,703 2904,682 2888,675 2866,676 2849,662 2854,641 2849,636 2851,619 2843,610 2848,600 2837,596 2841,581 2826,582 2820,563 2816,571 2803,573 2801,546 2791,552 2782,551 2780,543 2771,546 2780,532 2770,528 2772,522 2762,525 2760,519 2750,537 2740,533 2739,568 2723,547 2721,534 2715,545 2704,538 2716,517 2711,510 2697,516 2680,514 2680,537 2672,537 2670,528 2654,525 2650,517 2638,535 2632,528 2626,534 2623,497 2631,488 2613,489 2632,471 2620,474 2617,458 2605,458 2605,448 2611,445 2589,437 Z"/>
  <path fill="transparent" stroke="none" fill-rule="evenodd" data-name="Embervast" data-faction="The Crimson Sovereignty" data-color="4" data-culture="Continuance" d="M 2580,380 2579,373 2585,375 2584,387 Z"/>
  <path fill="transparent" stroke="none" fill-rule="evenodd" data-name="Pyroth" data-faction="The Crimson Sovereignty" data-color="4" data-culture="Continuance" d="M 2104,378 2116,377 2118,383 2111,388 2104,385 Z"/>
  <path fill="transparent" stroke="none" fill-rule="evenodd" data-name="Verdara" data-faction="The Verdant Realm" data-color="1" data-culture="Continuance" d="M 2387,475 2387,467 2399,462 2390,452 2395,450 2406,469 2395,478 Z"/>
  <path fill="transparent" stroke="none" fill-rule="evenodd" data-name="Sylveth" data-faction="The Verdant Realm" data-color="1" data-culture="Continuance" d="M 3129,740 3128,726 3138,707 3149,707 3158,696 3154,669 3167,653 3152,550 3169,548 3180,560 3194,545 3198,565 3210,557 3222,572 3234,575 3225,570 3229,561 3240,558 3245,563 3254,553 3266,561 3268,551 3285,549 3278,545 3276,533 3264,530 3273,527 3271,523 3255,512 3287,501 3306,513 3304,501 3314,506 3330,501 3336,511 3342,505 3344,529 3360,543 3363,554 3371,556 3368,541 3382,542 3394,551 3376,531 3397,534 3396,526 3403,528 3404,518 3413,520 3417,510 3411,502 3418,502 3421,489 3434,492 3441,502 3447,495 3452,520 3466,533 3472,534 3466,520 3477,522 3488,528 3489,542 3504,539 3515,550 3523,549 3529,562 3541,556 3534,593 3589,589 3583,587 3588,571 3602,580 3603,571 3609,571 3610,584 3617,576 3635,577 3635,566 3653,562 3650,539 3655,539 3675,563 3683,587 3701,598 3704,608 3702,617 3686,612 3693,625 3684,623 3657,637 3642,678 3686,690 3683,698 3690,698 3692,690 3708,696 3712,688 3730,693 3743,681 3750,686 3743,694 3747,716 3754,720 3770,708 3765,730 3774,726 3771,742 3747,749 3761,759 3714,768 3733,768 3724,780 3705,789 3681,790 3662,807 3611,805 3586,830 3551,826 3533,838 3511,842 3506,834 3488,830 3448,834 3414,811 3335,807 3329,826 3316,839 3317,880 3303,899 3302,918 3291,926 3273,927 3270,942 3260,949 3223,931 3213,916 3180,891 3178,875 3152,865 3133,840 3137,819 3126,771 Z"/>
  <path fill="transparent" stroke="none" fill-rule="evenodd" data-name="Morvain" data-faction="The Verdant Realm" data-color="1" data-culture="Continuance" d="M 3268,492 3273,497 3262,497 Z"/>
  <path fill="transparent" stroke="none" fill-rule="evenodd" data-name="Kellith" data-faction="The Verdant Realm" data-color="1" data-culture="Continuance" d="M 3508,526 3528,538 3544,537 3545,546 3531,550 3531,543 3513,538 Z"/>
  <path fill="transparent" stroke="none" fill-rule="evenodd" data-name="Auremoor" data-faction="The Gilded League" data-color="2" data-culture="Continuance" d="M 314,559 317,571 295,582 295,559 Z"/>
  <path fill="transparent" stroke="none" fill-rule="evenodd" data-name="Ochrevast" data-faction="The Gilded League" data-color="2" data-culture="Continuance" d="M 2168,583 2150,585 2146,576 2160,573 2169,577 Z"/>
  <path fill="transparent" stroke="none" fill-rule="evenodd" data-name="Grimwood" data-faction="The Verdant Realm" data-color="1" data-culture="Continuance" d="M 2389,581 2395,577 2393,584 Z"/>
  <path fill="transparent" stroke="none" fill-rule="evenodd" data-name="Azuroth" data-faction="The Azure Dominion" data-color="3" data-culture="Continuance" d="M 2767,740 2762,717 2727,707 2712,696 2711,687 2731,663 2719,622 2762,612 2762,595 2772,591 2778,602 2791,605 2796,597 2802,608 2814,605 2822,629 2828,622 2822,611 2835,619 2846,613 2853,642 2847,662 2864,676 2899,680 2915,703 3013,703 3001,726 2980,735 2968,748 2972,782 2954,840 2964,854 2965,877 2955,907 2932,921 2911,919 2898,862 2864,862 2837,845 2813,850 2782,826 2779,813 2786,792 2765,760 Z"/>
  <path fill="transparent" stroke="none" fill-rule="evenodd" data-name="Bruvast" data-faction="The Verdant Realm" data-color="1" data-culture="Continuance" d="M 2669,617 2666,606 2679,606 2692,595 2710,602 2730,664 2709,691 2729,709 2756,719 2743,743 2723,748 2711,762 2712,780 2664,794 2654,816 2646,821 2627,819 2594,841 2584,852 2579,872 2555,873 2543,864 2550,844 2544,835 2523,837 2520,852 2489,862 2496,820 2475,791 2453,801 2449,817 2437,828 2439,839 2445,841 2445,873 2429,886 2411,876 2390,874 2390,858 2380,847 2367,853 2360,869 2344,874 2332,866 2327,852 2302,839 2309,785 2300,764 2283,754 2278,732 2288,713 2279,701 2288,693 2279,682 2280,670 2322,682 2328,663 2344,664 2364,649 2364,661 2371,661 2376,671 2382,663 2395,664 2413,655 2432,676 2443,671 2453,675 2517,626 2541,629 2544,649 2554,652 2589,643 2601,630 2634,627 2643,637 Z"/>
  <path fill="transparent" stroke="none" fill-rule="evenodd" data-name="Lumikar" data-faction="The Gilded League" data-color="2" data-culture="Continuance" d="M 1707,617 1700,611 1710,599 1719,602 1730,620 1747,605 1755,608 1755,615 1777,605 1771,622 1764,624 1766,632 1758,637 1763,655 1801,651 1804,635 1835,627 1854,652 1877,639 1876,626 1884,624 1895,654 1909,660 1890,676 1895,693 1921,700 1918,719 1926,726 1927,744 1945,735 1948,749 1956,755 1949,789 1932,775 1930,804 1911,801 1898,808 1900,835 1932,840 1933,853 1918,872 1921,883 1933,883 1962,900 1981,933 1977,943 1934,943 1926,958 1906,964 1891,959 1823,913 1811,897 1810,884 1797,884 1789,839 1772,836 1749,810 1697,817 1685,796 1666,787 1665,751 1673,739 1688,739 1692,729 1731,731 1745,721 1716,697 1707,698 1709,680 1695,665 1684,666 1696,646 1711,636 Z"/>
  <path fill="transparent" stroke="none" fill-rule="evenodd" data-name="Sylmoor" data-faction="The Verdant Realm" data-color="1" data-culture="Continuance" d="M 2236,626 2239,622 2245,628 Z"/>
  <path fill="transparent" stroke="none" fill-rule="evenodd" data-name="Cobaltis" data-faction="The Azure Dominion" data-color="3" data-culture="Continuance" d="M 3657,643 3658,637 3671,642 3676,660 3662,674 3644,679 3646,658 Z"/>
  <path fill="transparent" stroke="none" fill-rule="evenodd" data-name="Solvain" data-faction="The Gilded League" data-color="2" data-culture="Continuance" d="M 3251,1233 3249,1219 3208,1207 3194,1172 3166,1167 3148,1154 3136,1128 3088,1124 3086,1074 3094,1032 3081,1006 3088,975 3037,947 3004,914 3005,894 2999,884 2966,872 2965,854 2955,839 2974,778 2969,747 3001,726 3021,697 3037,693 3047,699 3069,698 3078,707 3117,710 3129,732 3125,770 3136,818 3132,840 3153,867 3177,875 3178,890 3209,913 3224,933 3247,940 3269,972 3286,976 3287,992 3299,1010 3301,1038 3319,1055 3311,1065 3308,1110 3334,1121 3347,1146 3306,1181 3314,1202 3317,1248 3302,1256 3287,1255 3251,1239 Z"/>
  <path fill="transparent" stroke="none" fill-rule="evenodd" data-name="Kalthren" data-faction="The Verdant Realm" data-color="1" data-culture="Continuance" d="M 984,987 992,971 987,943 991,929 985,915 992,902 1008,892 1025,859 1026,847 1016,840 1016,828 1025,818 1052,812 1077,795 1116,788 1115,771 1130,761 1132,741 1143,723 1172,703 1183,720 1169,746 1167,771 1179,792 1169,792 1162,800 1162,818 1154,826 1173,834 1174,843 1175,837 1202,831 1202,843 1179,860 1174,886 1178,895 1191,901 1174,919 1174,929 1182,940 1186,934 1198,937 1202,951 1218,958 1222,967 1226,961 1240,966 1227,991 1245,1020 1241,1036 1217,1047 1207,1036 1207,1020 1179,1041 1178,1055 1172,1059 1175,1068 1155,1076 1119,1054 1109,1068 1109,1088 1081,1088 1077,1093 1069,1071 1055,1057 1063,1024 1052,1018 1023,1028 986,1013 Z"/>
  <path fill="transparent" stroke="none" fill-rule="evenodd" data-name="Thalast" data-faction="The Gilded League" data-color="2" data-culture="Continuance" d="M 2765,739 2764,760 2785,792 2780,825 2812,851 2839,847 2864,863 2898,863 2909,927 2891,942 2882,961 2871,963 2865,953 2849,966 2850,980 2837,990 2823,1020 2809,1027 2809,1039 2800,1047 2779,1047 2759,1056 2755,1035 2736,1020 2719,1036 2720,1046 2711,1044 2698,1060 2689,1056 2688,1048 2677,1060 2664,1061 2651,1052 2661,1073 2634,1074 2627,1067 2618,1072 2623,1050 2585,1062 2588,1052 2572,1057 2566,1046 2555,1050 2549,1035 2534,1035 2530,1011 2540,989 2508,956 2482,955 2486,909 2476,885 2488,863 2516,855 2522,838 2544,836 2549,838 2544,866 2560,875 2577,873 2593,842 2626,820 2650,819 2663,795 2713,780 2712,761 2724,748 2743,743 2756,719 Z"/>
  <path fill="transparent" stroke="none" fill-rule="evenodd" data-name="Goldmere" data-faction="The Gilded League" data-color="2" data-culture="Continuance" d="M 2260,771 2245,738 2255,723 2279,735 2283,757 2299,764 2308,786 2301,838 2316,844 2328,854 2332,867 2349,876 2356,907 2355,941 2376,961 2364,984 2325,987 2319,1019 2305,1027 2297,1053 2280,1052 2275,1045 2278,998 2262,983 2265,957 2244,943 2273,902 2261,880 2261,867 2246,858 2235,826 2239,811 2259,788 Z"/>
  <path fill="transparent" stroke="none" fill-rule="evenodd" data-name="Verdusk" data-faction="The Verdant Realm" data-color="1" data-culture="Continuance" d="M 2056,771 2089,781 2104,773 2116,756 2136,753 2173,725 2202,733 2212,727 2217,744 2245,737 2261,778 2238,811 2234,827 2245,857 2260,867 2272,904 2243,943 2263,955 2261,980 2277,998 2274,1013 2249,1008 2204,1027 2173,1026 2158,1037 2144,1032 2141,1024 2120,1020 2096,993 2045,993 2025,978 1998,983 1998,960 1963,900 1971,877 1985,860 2008,858 2017,845 2045,838 2047,790 2061,782 Z"/>
  <path fill="transparent" stroke="none" fill-rule="evenodd" data-name="Thanwood" data-faction="The Verdant Realm" data-color="1" data-culture="Continuance" d="M 1437,755 1437,739 1449,739 1449,759 Z"/>
  <path fill="transparent" stroke="none" fill-rule="evenodd" data-name="Galvast" data-faction="The Verdant Realm" data-color="1" data-culture="Continuance" d="M 1670,956 1643,950 1635,931 1581,917 1584,909 1576,903 1574,891 1560,891 1547,881 1551,855 1544,843 1544,824 1561,818 1564,802 1585,786 1608,797 1631,787 1631,775 1655,767 1666,775 1666,788 1686,798 1694,817 1749,811 1772,837 1792,842 1796,886 1788,913 1789,939 1761,958 1759,984 1747,1000 1727,1003 1723,1009 1703,1005 1705,991 1682,983 1686,969 Z"/>
  <path fill="transparent" stroke="none" fill-rule="evenodd" data-name="Sapphrine" data-faction="The Azure Dominion" data-color="3" data-culture="Continuance" d="M 3315,1233 3316,1204 3307,1181 3324,1162 3343,1155 3348,1143 3331,1118 3309,1110 3311,1068 3320,1055 3301,1035 3300,1011 3288,992 3288,978 3266,969 3259,950 3272,940 3272,928 3302,919 3305,896 3318,880 3317,838 3330,826 3334,808 3414,812 3445,834 3460,837 3489,831 3503,833 3517,844 3550,827 3590,829 3613,805 3644,803 3655,809 3680,791 3695,788 3725,801 3742,792 3743,814 3752,815 3749,833 3758,838 3780,833 3775,842 3782,844 3786,863 3777,873 3792,861 3803,880 3791,891 3812,898 3765,905 3751,915 3798,925 3804,921 3812,946 3819,946 3829,934 3836,949 3838,941 3845,945 3851,967 3851,962 3873,959 3886,927 3901,924 3907,898 3927,917 3933,913 3946,918 3941,926 3959,928 3944,939 3935,971 3941,977 3965,977 3955,989 3956,998 3941,1002 3932,1015 3913,1020 3920,1023 3922,1034 3900,1046 3877,1032 3845,1034 3853,1041 3845,1047 3864,1061 3843,1065 3840,1060 3805,1058 3776,1039 3768,1039 3752,1056 3722,1054 3711,1065 3658,1063 3628,1069 3618,1056 3596,1056 3583,1065 3575,1083 3537,1096 3527,1114 3481,1119 3472,1167 3475,1182 3465,1187 3464,1201 3469,1220 3481,1222 3484,1231 3480,1244 3462,1257 3443,1258 3413,1228 3372,1232 3363,1243 3370,1275 3355,1281 3319,1249 Z"/>
  <path fill="transparent" stroke="none" fill-rule="evenodd" data-name="Cyandor" data-faction="The Azure Dominion" data-color="3" data-culture="Continuance" d="M 2484,924 2481,955 2506,956 2539,990 2528,1012 2529,1031 2549,1036 2551,1043 2544,1049 2544,1072 2535,1077 2530,1067 2519,1067 2532,1077 2531,1084 2511,1081 2511,1088 2503,1086 2500,1091 2470,1086 2463,1071 2470,1057 2465,1042 2451,1045 2414,1031 2404,973 2370,958 2356,941 2356,896 2350,879 2375,848 2388,856 2390,875 2412,877 2423,887 2442,878 2446,842 2438,827 2450,816 2452,802 2479,793 2495,818 2487,869 2476,885 2485,907 Z"/>
  <path fill="transparent" stroke="none" fill-rule="evenodd" data-name="Thalassa" data-faction="The Azure Dominion" data-color="3" data-culture="Continuance" d="M 3999,830 3997,821 4014,824 4009,835 Z"/>
  <path fill="transparent" stroke="none" fill-rule="evenodd" data-name="Lorvain" data-faction="The Verdant Realm" data-color="1" data-culture="Continuance" d="M 1202,860 1204,853 1207,861 Z"/>
  <path fill="transparent" stroke="none" fill-rule="evenodd" data-name="Ceruleth" data-faction="The Azure Dominion" data-color="3" data-culture="Continuance" d="M 1664,955 1683,964 1681,983 1705,993 1699,1011 1677,1016 1671,1044 1693,1075 1700,1100 1685,1109 1661,1088 1631,1091 1631,1083 1619,1071 1609,1071 1588,1077 1588,1102 1566,1110 1555,1129 1544,1129 1539,1117 1543,1100 1534,1093 1533,1072 1505,1045 1509,1004 1547,998 1543,986 1499,958 1502,943 1512,934 1510,926 1523,921 1506,906 1522,905 1528,895 1525,871 1542,861 1551,863 1546,881 1558,891 1573,891 1574,902 1582,907 1579,917 1635,932 1642,950 Z"/>
  <path fill="transparent" stroke="none" fill-rule="evenodd" data-name="Fethis" data-faction="The Verdant Realm" data-color="1" data-culture="Continuance" d="M 1191,873 1198,871 1196,876 Z"/>
  <path fill="transparent" stroke="none" fill-rule="evenodd" data-name="Grumont" data-faction="The Verdant Realm" data-color="1" data-culture="Continuance" d="M 2794,1079 2794,1072 2833,1066 2850,1055 2874,1066 2874,1060 2900,1046 2916,1045 2924,1051 2952,1046 2961,1052 2976,1043 2987,1045 2978,1032 2982,1012 2972,1000 2972,981 2953,1000 2925,999 2916,1021 2900,1028 2872,1003 2854,1009 2840,1025 2834,1025 2829,1010 2860,955 2867,954 2871,964 2880,963 2911,921 2933,921 2948,913 2961,900 2968,873 2998,884 3004,893 3003,914 3036,947 3051,951 3062,966 3079,967 3087,975 3080,1008 3093,1036 3085,1074 3088,1122 3031,1151 3015,1148 3004,1155 2977,1156 2969,1186 2975,1197 2965,1237 2942,1234 2929,1240 2914,1265 2915,1281 2890,1320 2852,1334 2848,1342 2819,1345 2810,1328 2792,1313 2802,1259 2788,1220 2778,1211 2779,1195 2763,1152 2767,1133 2781,1131 2781,1121 2797,1102 2799,1093 2791,1087 Z M 2981,1078 2980,1084 3000,1098 3023,1102 3035,1090 3052,1087 3056,1071 3033,1061 3015,1068 3009,1050 2994,1046 Z"/>
  <path fill="transparent" stroke="none" fill-rule="evenodd" data-name="Rubelis" data-faction="The Crimson Sovereignty" data-color="4" data-culture="Continuance" d="M 1765,956 1788,943 1796,884 1809,885 1819,910 1853,935 1840,968 1847,1042 1836,1062 1794,1069 1795,1081 1780,1095 1781,1109 1749,1114 1744,1141 1736,1149 1739,1194 1723,1208 1710,1208 1692,1201 1688,1185 1674,1174 1686,1110 1702,1098 1694,1075 1673,1049 1675,1021 1699,1011 1701,1005 1723,1010 1730,1002 1747,1000 1759,986 Z"/>
  <path fill="transparent" stroke="none" fill-rule="evenodd" data-name="Syloth" data-faction="The Verdant Realm" data-color="1" data-culture="Continuance" d="M 1292,905 1300,907 1300,914 1276,912 Z"/>
  <path fill="transparent" stroke="none" fill-rule="evenodd" data-name="Bluethorn" data-faction="The Azure Dominion" data-color="3" data-culture="Continuance" d="M 2036,1109 2049,1094 2013,1070 2002,1071 1993,1083 1966,1081 1967,1049 1974,1041 1970,1024 1976,1011 1937,993 1927,962 1932,944 1974,944 1984,938 1997,960 2000,985 2027,979 2045,994 2094,993 2110,1004 2120,1021 2140,1025 2170,1049 2143,1064 2138,1077 2142,1101 2127,1135 2151,1154 2154,1173 2149,1176 2133,1161 2133,1169 2125,1172 2102,1169 2089,1186 2068,1173 2047,1172 2038,1153 2048,1121 2037,1118 Z"/>
  <path fill="transparent" stroke="none" fill-rule="evenodd" data-name="Dravast" data-faction="The Verdant Realm" data-color="1" data-culture="Continuance" d="M 2036,1109 2036,1118 2046,1121 2042,1145 2019,1148 2013,1179 1980,1204 1935,1204 1928,1185 1889,1186 1877,1195 1849,1200 1836,1231 1814,1237 1809,1224 1760,1217 1740,1194 1737,1148 1746,1137 1749,1115 1782,1108 1781,1095 1797,1079 1796,1067 1834,1064 1841,1056 1850,1034 1841,967 1853,939 1873,943 1879,953 1901,965 1925,960 1937,995 1975,1011 1965,1081 1994,1083 2001,1072 2015,1072 2047,1093 Z"/>
  <path fill="transparent" stroke="none" fill-rule="evenodd" data-name="Morthane" data-faction="The Verdant Realm" data-color="1" data-culture="Continuance" d="M 2287,1110 2287,1094 2303,1073 2298,1049 2305,1043 2305,1028 2319,1021 2323,991 2365,984 2378,962 2404,975 2415,1033 2425,1032 2451,1046 2465,1043 2468,1050 2469,1061 2462,1067 2468,1087 2461,1090 2461,1103 2453,1099 2450,1116 2433,1129 2425,1127 2429,1117 2393,1123 2391,1107 2372,1129 2346,1126 2331,1142 2312,1132 2316,1116 2289,1117 Z"/>
  <path fill="transparent" stroke="none" fill-rule="evenodd" data-name="Aurenoth" data-faction="The Gilded League" data-color="2" data-culture="Continuance" d="M 508,1012 508,999 514,1011 511,1027 499,1029 Z"/>
  <path fill="transparent" stroke="none" fill-rule="evenodd" data-name="Lunaris" data-faction="The Gilded League" data-color="2" data-culture="Continuance" d="M 395,1015 402,1038 387,1053 390,1036 383,1019 393,1000 Z"/>
  <path fill="transparent" stroke="none" fill-rule="evenodd" data-name="Elwood" data-faction="The Verdant Realm" data-color="1" data-culture="Continuance" d="M 1270,1172 1256,1148 1289,1123 1297,1128 1292,1119 1300,1107 1306,1108 1304,1097 1286,1088 1298,1055 1296,1070 1312,1058 1309,1005 1325,1012 1344,1008 1351,1022 1345,1040 1363,1035 1369,1050 1371,1038 1384,1036 1386,1025 1409,1011 1420,1023 1419,1030 1412,1031 1412,1041 1446,1042 1474,1003 1488,1019 1500,1019 1508,1029 1508,1054 1529,1066 1533,1093 1542,1100 1538,1125 1544,1130 1554,1130 1567,1110 1588,1103 1584,1089 1589,1077 1607,1072 1621,1073 1631,1092 1657,1087 1678,1101 1686,1122 1673,1174 1688,1186 1691,1204 1680,1212 1659,1268 1629,1272 1623,1281 1625,1293 1599,1296 1589,1326 1559,1339 1551,1325 1514,1335 1443,1322 1442,1308 1409,1292 1413,1271 1403,1263 1384,1271 1340,1272 1322,1288 1307,1277 1301,1258 1274,1228 Z"/>
  <path fill="transparent" stroke="none" fill-rule="evenodd" data-name="Solleth" data-faction="The Gilded League" data-color="2" data-culture="Continuance" d="M 358,1040 345,1056 344,1041 331,1028 343,1014 349,1019 366,1017 374,1005 383,1004 373,1032 Z"/>
  <path fill="transparent" stroke="none" fill-rule="evenodd" data-name="Sanguim" data-faction="The Crimson Sovereignty" data-color="4" data-culture="Continuance" d="M 2138,1110 2144,1095 2142,1068 2171,1052 2161,1037 2174,1027 2201,1028 2229,1013 2258,1010 2274,1015 2273,1045 2280,1053 2297,1054 2301,1062 2302,1074 2286,1096 2287,1134 2272,1138 2265,1133 2267,1146 2235,1163 2226,1161 2223,1130 2215,1121 2208,1143 2190,1150 2165,1148 2162,1140 2130,1140 Z"/>
  <path fill="transparent" stroke="none" fill-rule="evenodd" data-name="Indivast" data-faction="The Azure Dominion" data-color="3" data-culture="Continuance" d="M 993,1171 975,1139 964,1131 955,1134 938,1108 928,1108 932,1097 946,1092 939,1047 983,1014 1023,1029 1057,1019 1063,1033 1053,1054 1071,1079 1065,1112 1079,1130 1118,1125 1127,1151 1166,1155 1181,1175 1170,1192 1174,1197 1185,1191 1218,1193 1221,1179 1235,1184 1271,1176 1275,1223 1241,1249 1203,1263 1202,1271 1216,1286 1213,1296 1201,1310 1175,1317 1175,1324 1165,1324 1161,1312 1118,1319 1106,1305 1080,1300 1059,1310 1060,1294 1039,1287 1040,1273 1055,1265 1087,1263 1076,1253 1072,1232 1083,1216 1037,1210 1039,1190 1030,1184 1010,1207 998,1188 991,1189 Z"/>
  <path fill="transparent" stroke="none" fill-rule="evenodd" data-name="Lumivast" data-faction="The Gilded League" data-color="2" data-culture="Continuance" d="M 296,1032 304,1022 308,1038 Z"/>
  <path fill="transparent" stroke="none" fill-rule="evenodd" data-name="Goldrath" data-faction="The Gilded League" data-color="2" data-culture="Continuance" d="M 330,1059 320,1057 313,1027 338,1040 341,1057 Z"/>
  <path fill="transparent" stroke="none" fill-rule="evenodd" data-name="Solmoor" data-faction="The Gilded League" data-color="2" data-culture="Continuance" d="M 352,1082 382,1029 380,1068 360,1087 Z"/>
  <path fill="transparent" stroke="none" fill-rule="evenodd" data-name="Grithane" data-faction="The Verdant Realm" data-color="1" data-culture="Continuance" d="M 3762,1047 3773,1039 3791,1053 3826,1062 3821,1076 3828,1085 3827,1098 3811,1105 3791,1092 3794,1102 3779,1097 3779,1125 3793,1132 3811,1126 3822,1145 3854,1160 3860,1177 3856,1184 3868,1188 3866,1206 3850,1221 3852,1239 3832,1235 3816,1240 3808,1233 3807,1220 3785,1222 3780,1196 3773,1211 3773,1188 3780,1183 3775,1172 3778,1146 3757,1133 3753,1140 3728,1133 3725,1104 3707,1105 3709,1113 3701,1120 3683,1117 3675,1123 3653,1117 3664,1125 3646,1126 3634,1121 3624,1128 3632,1135 3649,1134 3651,1153 3633,1146 3662,1167 3657,1172 3658,1189 3649,1194 3647,1183 3645,1205 3638,1213 3629,1201 3630,1185 3627,1195 3612,1192 3604,1203 3619,1204 3597,1218 3606,1223 3602,1238 3572,1240 3561,1247 3564,1259 3595,1261 3595,1266 3580,1269 3587,1276 3577,1279 3595,1279 3590,1295 3607,1291 3602,1301 3621,1302 3622,1308 3611,1310 3627,1312 3633,1320 3618,1320 3627,1329 3616,1332 3615,1343 3605,1346 3603,1358 3611,1359 3611,1369 3564,1355 3566,1367 3557,1367 3550,1381 3542,1379 3538,1369 3519,1362 3507,1344 3492,1337 3489,1324 3480,1317 3479,1286 3466,1254 3480,1244 3485,1226 3469,1219 3465,1201 3467,1186 3476,1181 3480,1121 3524,1116 3536,1097 3574,1084 3585,1063 3595,1057 3617,1056 3631,1070 3653,1064 3709,1066 3722,1055 3742,1060 Z"/>
  <path fill="transparent" stroke="none" fill-rule="evenodd" data-name="Aurelis" data-faction="The Gilded League" data-color="2" data-culture="Continuance" d="M 358,1048 369,1041 367,1053 357,1055 Z"/>
  <path fill="transparent" stroke="none" fill-rule="evenodd" data-name="Ochrenoth" data-faction="The Gilded League" data-color="2" data-culture="Continuance" d="M 289,1082 304,1064 294,1043 306,1043 318,1064 307,1070 304,1081 Z"/>
  <path fill="transparent" stroke="none" fill-rule="evenodd" data-name="Limavast" data-faction="The Gilded League" data-color="2" data-culture="Continuance" d="M 432,1054 451,1051 446,1060 425,1060 398,1075 396,1064 406,1045 Z"/>
  <path fill="transparent" stroke="none" fill-rule="evenodd" data-name="Charteth" data-faction="The Gilded League" data-color="2" data-culture="Continuance" d="M 382,1082 379,1075 393,1057 395,1096 388,1095 Z"/>
  <path fill="transparent" stroke="none" fill-rule="evenodd" data-name="Territory-2-17" data-faction="The Gilded League" data-color="2" data-culture="Continuance" d="M 346,1078 348,1085 342,1089 327,1079 311,1083 317,1068 338,1062 353,1063 Z"/>
  <path fill="transparent" stroke="none" fill-rule="evenodd" data-name="Territory-2-18" data-faction="The Gilded League" data-color="2" data-culture="Continuance" d="M 360,1108 364,1090 375,1082 386,1102 364,1115 Z"/>
  <path fill="transparent" stroke="none" fill-rule="evenodd" data-name="Territory-2-19" data-faction="The Gilded League" data-color="2" data-culture="Continuance" d="M 347,1111 342,1095 350,1090 355,1098 Z"/>
  <path fill="transparent" stroke="none" fill-rule="evenodd" data-name="Cobalis" data-faction="The Azure Dominion" data-color="3" data-culture="Continuance" d="M 2555,1133 2568,1110 2579,1108 2572,1103 2594,1106 2604,1097 2631,1123 2632,1134 2621,1149 2627,1165 2611,1195 2613,1208 2632,1231 2630,1261 2588,1259 2567,1271 2544,1269 2523,1302 2519,1321 2506,1330 2484,1329 2490,1313 2481,1299 2489,1290 2490,1263 2499,1258 2504,1245 2504,1202 2501,1191 2490,1183 2506,1183 2508,1171 2526,1178 2531,1171 2543,1176 2549,1163 2559,1166 2559,1152 2547,1141 Z"/>
  <path fill="transparent" stroke="none" fill-rule="evenodd" data-name="Thulanost" data-faction="The Verdant Realm" data-color="1" data-culture="Continuance" d="M 1,1149 0,1100 32,1117 32,1846 0,1846 Z"/>
  <path fill="transparent" stroke="none" fill-rule="evenodd" data-name="Naveth" data-faction="The Azure Dominion" data-color="3" data-culture="Continuance" d="M 172,1173 146,1176 131,1143 136,1135 147,1134 154,1149 162,1147 171,1140 178,1120 187,1116 188,1143 178,1150 Z"/>
  <path fill="transparent" stroke="none" fill-rule="evenodd" data-name="Territory-2-20" data-faction="The Gilded League" data-color="2" data-culture="Continuance" d="M 2632,1264 2628,1247 2633,1231 2612,1200 2628,1163 2622,1148 2633,1133 2632,1123 2642,1121 2646,1135 2661,1137 2661,1145 2671,1141 2675,1150 2670,1156 2676,1160 2669,1164 2680,1163 2680,1180 2672,1189 2683,1215 2667,1230 2671,1256 2694,1244 2705,1223 2704,1212 2693,1207 2694,1192 2702,1184 2720,1188 2719,1181 2738,1164 2741,1135 2753,1136 2773,1177 2777,1210 2787,1219 2801,1259 2791,1313 2808,1326 2819,1351 2802,1377 2776,1393 2725,1402 2706,1383 2709,1349 2691,1337 2680,1338 2646,1307 2660,1289 2659,1273 2646,1274 Z"/>
  <path fill="transparent" stroke="none" fill-rule="evenodd" data-name="Cerulast" data-faction="The Azure Dominion" data-color="3" data-culture="Continuance" d="M 3250,1232 3250,1238 3225,1237 3201,1246 3173,1297 3203,1334 3209,1387 3192,1382 3182,1418 3142,1431 3120,1463 3093,1482 3089,1494 3052,1505 3035,1526 3013,1533 2996,1530 2952,1544 2887,1538 2851,1554 2799,1538 2778,1548 2764,1569 2749,1568 2746,1552 2729,1538 2730,1528 2749,1521 2755,1506 2745,1497 2746,1479 2713,1459 2699,1435 2728,1409 2728,1402 2764,1398 2801,1378 2820,1346 2846,1343 2856,1332 2889,1322 2893,1308 2916,1280 2915,1265 2929,1241 2940,1235 2965,1238 2979,1155 3030,1152 3083,1124 3128,1126 3139,1132 3144,1151 3165,1167 3195,1173 3209,1209 3248,1219 Z"/>
  <path fill="transparent" stroke="none" fill-rule="evenodd" data-name="Morethis" data-faction="The Verdant Realm" data-color="1" data-culture="Continuance" d="M 3679,1140 3673,1144 3671,1136 Z"/>
  <path fill="transparent" stroke="none" fill-rule="evenodd" data-name="Territory-2-21" data-faction="The Gilded League" data-color="2" data-culture="Continuance" d="M 1753,1480 1745,1473 1767,1441 1761,1431 1762,1412 1793,1362 1785,1349 1774,1345 1763,1321 1765,1219 1781,1217 1786,1223 1809,1225 1813,1237 1823,1238 1837,1231 1848,1201 1877,1196 1889,1187 1928,1186 1935,1206 1966,1208 2004,1191 2018,1171 2019,1149 2040,1146 2037,1158 2046,1173 2073,1179 2072,1195 2081,1211 2064,1233 2058,1228 2066,1227 2070,1213 2062,1208 2061,1198 2050,1199 2030,1224 2028,1235 2042,1259 2054,1259 2058,1250 2057,1262 2075,1283 2064,1277 2056,1290 2043,1284 2038,1290 2041,1302 1990,1305 1991,1329 1984,1334 1966,1329 1953,1368 1939,1373 1950,1377 1958,1389 1975,1379 1975,1373 1987,1380 1985,1388 1997,1408 1983,1424 1983,1432 1993,1437 1986,1462 1989,1470 2008,1470 2014,1479 2009,1508 2032,1515 2031,1537 2044,1545 2054,1540 2055,1551 2071,1569 2079,1563 2095,1567 2104,1550 2117,1553 2122,1562 2100,1574 2096,1598 2135,1620 2155,1622 2158,1639 2153,1653 2174,1655 2201,1683 2262,1683 2287,1675 2300,1689 2315,1692 2332,1725 2329,1750 2272,1751 2236,1767 2196,1755 2182,1761 2155,1751 2130,1751 2063,1779 2008,1767 1819,1771 1811,1746 1787,1746 1780,1733 1763,1723 1762,1714 1742,1712 1732,1702 1728,1683 1735,1657 1730,1643 1738,1631 1720,1594 1704,1577 1703,1566 1717,1546 1718,1524 1709,1510 1683,1511 1701,1500 1739,1491 Z M 1761,1603 1779,1615 1822,1612 1830,1589 1808,1567 1796,1564 1772,1574 Z"/>
  <path fill="transparent" stroke="none" fill-rule="evenodd" data-name="Territory-2-22" data-faction="The Gilded League" data-color="2" data-culture="Continuance" d="M 535,1171 540,1154 552,1150 572,1160 566,1186 559,1191 581,1205 584,1216 595,1210 599,1234 608,1242 605,1249 591,1254 578,1242 567,1243 547,1260 529,1252 522,1233 532,1214 502,1192 500,1180 Z"/>
  <path fill="transparent" stroke="none" fill-rule="evenodd" data-name="Cobrath" data-faction="The Azure Dominion" data-color="3" data-culture="Continuance" d="M 927,1182 925,1189 909,1188 904,1165 920,1158 930,1166 932,1178 Z"/>
  <path fill="transparent" stroke="none" fill-rule="evenodd" data-name="Territory-2-23" data-faction="The Gilded League" data-color="2" data-culture="Continuance" d="M 667,1210 659,1170 670,1178 670,1193 678,1192 672,1209 686,1224 687,1238 682,1239 680,1225 670,1220 Z"/>
  <path fill="transparent" stroke="none" fill-rule="evenodd" data-name="Territory-3-16" data-faction="The Azure Dominion" data-color="3" data-culture="Continuance" d="M 976,1177 972,1170 978,1171 Z"/>
  <path fill="transparent" stroke="none" fill-rule="evenodd" data-name="Territory-1-22" data-faction="The Verdant Realm" data-color="1" data-culture="Continuance" d="M 2446,1263 2451,1259 2448,1251 2433,1243 2419,1244 2420,1221 2428,1219 2426,1212 2440,1218 2475,1208 2457,1208 2453,1195 2485,1197 2490,1192 2503,1202 2498,1226 2503,1248 2489,1264 2488,1290 2480,1300 2489,1311 2485,1330 2504,1331 2521,1319 2524,1300 2545,1269 2567,1272 2593,1260 2628,1262 2647,1275 2657,1273 2660,1289 2645,1306 2659,1324 2677,1331 2678,1339 2691,1338 2708,1348 2705,1383 2727,1409 2698,1437 2677,1435 2661,1423 2647,1434 2635,1435 2610,1449 2601,1473 2582,1489 2537,1475 2535,1462 2544,1451 2545,1431 2535,1416 2521,1412 2503,1426 2491,1418 2481,1422 2463,1414 2421,1409 2399,1382 2400,1360 2375,1359 2373,1344 2386,1339 2388,1323 2404,1311 2403,1303 2426,1289 2427,1270 Z"/>
  <path fill="transparent" stroke="none" fill-rule="evenodd" data-name="Territory-3-17" data-faction="The Azure Dominion" data-color="3" data-culture="Continuance" d="M 1760,1294 1762,1321 1771,1342 1792,1360 1785,1377 1763,1412 1726,1411 1680,1445 1654,1438 1647,1427 1629,1425 1618,1435 1596,1441 1583,1459 1572,1459 1556,1450 1540,1451 1533,1440 1514,1431 1498,1409 1466,1408 1455,1389 1471,1363 1457,1346 1461,1328 1522,1336 1552,1326 1559,1339 1581,1333 1590,1325 1599,1296 1624,1294 1629,1273 1660,1267 1681,1211 1694,1202 1722,1209 1742,1195 1751,1211 1764,1219 Z"/>
  <path fill="transparent" stroke="none" fill-rule="evenodd" data-name="Territory-1-23" data-faction="The Verdant Realm" data-color="1" data-culture="Continuance" d="M 2396,1212 2403,1208 2413,1221 2414,1248 2406,1248 2389,1226 Z"/>
  <path fill="transparent" stroke="none" fill-rule="evenodd" data-name="Territory-1-24" data-faction="The Verdant Realm" data-color="1" data-culture="Continuance" d="M 2417,1210 2420,1216 2414,1214 2413,1208 Z"/>
  <path fill="transparent" stroke="none" fill-rule="evenodd" data-name="Territory-2-24" data-faction="The Gilded League" data-color="2" data-culture="Continuance" d="M 494,1210 504,1209 509,1225 503,1232 490,1222 Z"/>
  <path fill="transparent" stroke="none" fill-rule="evenodd" data-name="Territory-1-25" data-faction="The Verdant Realm" data-color="1" data-culture="Continuance" d="M 3618,1214 3624,1210 3627,1217 Z"/>
  <path fill="transparent" stroke="none" fill-rule="evenodd" data-name="Territory-3-18" data-faction="The Azure Dominion" data-color="3" data-culture="Continuance" d="M 824,1235 823,1230 818,1232 818,1219 824,1223 843,1212 837,1225 844,1229 Z"/>
  <path fill="transparent" stroke="none" fill-rule="evenodd" data-name="Territory-2-25" data-faction="The Gilded League" data-color="2" data-culture="Continuance" d="M 1261,1326 1256,1314 1212,1283 1203,1263 1224,1258 1274,1228 1302,1260 1308,1280 1323,1289 1339,1273 1380,1273 1396,1264 1408,1266 1409,1294 1439,1307 1443,1323 1459,1326 1455,1344 1469,1358 1469,1367 1454,1388 1393,1415 1361,1400 1316,1396 1298,1381 1258,1365 1253,1348 Z"/>
  <path fill="transparent" stroke="none" fill-rule="evenodd" data-name="Territory-1-26" data-faction="The Verdant Realm" data-color="1" data-culture="Continuance" d="M 2425,1264 2418,1287 2386,1287 2381,1299 2366,1295 2365,1278 2378,1262 2369,1238 2380,1230 2387,1229 2404,1254 2437,1252 2439,1259 Z"/>
  <path fill="transparent" stroke="none" fill-rule="evenodd" data-name="Ardenth" data-faction="The Crimson Sovereignty" data-color="4" data-culture="Continuance" d="M 3393,1232 3419,1232 3444,1259 3465,1256 3474,1269 3480,1319 3489,1325 3489,1335 3505,1343 3518,1362 3537,1369 3553,1391 3587,1390 3592,1403 3580,1417 3597,1414 3597,1429 3584,1440 3576,1434 3556,1445 3552,1442 3541,1469 3526,1465 3525,1446 3502,1433 3491,1434 3479,1452 3459,1445 3443,1453 3448,1476 3445,1510 3424,1534 3417,1552 3431,1584 3439,1588 3443,1607 3424,1615 3413,1645 3401,1646 3395,1624 3345,1606 3341,1593 3329,1583 3319,1588 3317,1611 3289,1613 3272,1625 3253,1620 3250,1634 3258,1652 3241,1658 3208,1629 3186,1620 3180,1587 3167,1563 3184,1530 3183,1500 3173,1488 3184,1455 3183,1416 3190,1406 3191,1384 3207,1389 3212,1369 3202,1330 3175,1303 3177,1287 3200,1247 3226,1238 3253,1239 3288,1256 3321,1249 3345,1277 3362,1282 3371,1269 3365,1239 3371,1233 Z"/>
  <path fill="transparent" stroke="none" fill-rule="evenodd" data-name="Violeth" data-faction="The Violet Principality" data-color="5" data-culture="Continuance" d="M 409,1254 417,1238 424,1258 Z"/>
  <path fill="transparent" stroke="none" fill-rule="evenodd" data-name="Territory-1-27" data-faction="The Verdant Realm" data-color="1" data-culture="Continuance" d="M 3840,1245 3834,1253 3829,1250 3831,1243 Z"/>
  <path fill="transparent" stroke="none" fill-rule="evenodd" data-name="Territory-1-28" data-faction="The Verdant Realm" data-color="1" data-culture="Continuance" d="M 2362,1271 2352,1255 2365,1252 2370,1264 Z"/>
  <path fill="transparent" stroke="none" fill-rule="evenodd" data-name="Territory-3-19" data-faction="The Azure Dominion" data-color="3" data-culture="Continuance" d="M 907,1277 905,1260 915,1271 905,1289 Z"/>
  <path fill="transparent" stroke="none" fill-rule="evenodd" data-name="Territory-3-20" data-faction="The Azure Dominion" data-color="3" data-culture="Continuance" d="M 704,1287 718,1282 712,1296 705,1295 Z"/>
  <path fill="transparent" stroke="none" fill-rule="evenodd" data-name="Territory-1-29" data-faction="The Verdant Realm" data-color="1" data-culture="Continuance" d="M 948,1309 939,1317 929,1312 936,1299 934,1286 945,1286 947,1295 956,1290 Z"/>
  <path fill="transparent" stroke="none" fill-rule="evenodd" data-name="Flameris" data-faction="The Crimson Sovereignty" data-color="4" data-culture="Continuance" d="M 1361,1479 1361,1490 1346,1498 1305,1500 1295,1487 1237,1514 1225,1514 1209,1503 1172,1504 1163,1513 1133,1520 1115,1513 1114,1499 1088,1474 1102,1451 1122,1450 1125,1440 1150,1424 1154,1407 1137,1363 1114,1346 1112,1318 1161,1313 1165,1325 1172,1326 1177,1317 1200,1311 1216,1288 1233,1296 1258,1318 1260,1333 1252,1349 1258,1366 1297,1381 1317,1397 1350,1401 1346,1428 1362,1456 Z"/>
  <path fill="transparent" stroke="none" fill-rule="evenodd" data-name="Territory-1-30" data-faction="The Verdant Realm" data-color="1" data-culture="Continuance" d="M 2394,1300 2391,1293 2410,1292 2409,1297 Z"/>
  <path fill="transparent" stroke="none" fill-rule="evenodd" data-name="Territory-3-21" data-faction="The Azure Dominion" data-color="3" data-culture="Continuance" d="M 661,1307 668,1304 668,1310 Z"/>
  <path fill="transparent" stroke="none" fill-rule="evenodd" data-name="Territory-1-31" data-faction="The Verdant Realm" data-color="1" data-culture="Continuance" d="M 1150,1402 1149,1425 1126,1439 1123,1449 1103,1450 1096,1467 1074,1483 1062,1484 1055,1499 1044,1499 1033,1489 1016,1490 1011,1477 1000,1470 1000,1459 1015,1450 1015,1407 1006,1390 1006,1403 1000,1403 1005,1411 988,1420 987,1401 996,1392 1010,1355 1030,1347 1043,1330 1058,1343 1056,1358 1062,1348 1077,1343 1078,1317 1085,1319 1091,1309 1106,1306 1113,1346 1136,1363 Z"/>
  <path fill="transparent" stroke="none" fill-rule="evenodd" data-name="Territory-3-22" data-faction="The Azure Dominion" data-color="3" data-culture="Continuance" d="M 540,1325 537,1311 554,1319 552,1333 Z"/>
  <path fill="transparent" stroke="none" fill-rule="evenodd" data-name="Territory-1-32" data-faction="The Verdant Realm" data-color="1" data-culture="Continuance" d="M 817,1314 826,1312 834,1319 Z"/>
  <path fill="transparent" stroke="none" fill-rule="evenodd" data-name="Territory-3-23" data-faction="The Azure Dominion" data-color="3" data-culture="Continuance" d="M 766,1352 783,1344 789,1326 796,1329 803,1319 825,1313 837,1322 836,1339 774,1377 772,1369 766,1372 762,1367 773,1356 764,1357 Z"/>
  <path fill="transparent" stroke="none" fill-rule="evenodd" data-name="Amethon" data-faction="The Violet Principality" data-color="5" data-culture="Continuance" d="M 330,1336 332,1321 349,1317 338,1341 Z"/>
  <path fill="transparent" stroke="none" fill-rule="evenodd" data-name="Porphyrith" data-faction="The Violet Principality" data-color="5" data-culture="Continuance" d="M 369,1326 367,1320 374,1324 Z"/>
  <path fill="transparent" stroke="none" fill-rule="evenodd" data-name="Territory-1-33" data-faction="The Verdant Realm" data-color="1" data-culture="Continuance" d="M 890,1339 882,1335 900,1324 902,1329 Z"/>
  <path fill="transparent" stroke="none" fill-rule="evenodd" data-name="Territory-3-24" data-faction="The Azure Dominion" data-color="3" data-culture="Continuance" d="M 586,1328 594,1332 589,1340 581,1335 Z"/>
  <path fill="transparent" stroke="none" fill-rule="evenodd" data-name="Territory-1-34" data-faction="The Verdant Realm" data-color="1" data-culture="Continuance" d="M 802,1366 800,1361 836,1339 830,1343 840,1367 828,1383 809,1384 Z"/>
  <path fill="transparent" stroke="none" fill-rule="evenodd" data-name="Territory-1-35" data-faction="The Verdant Realm" data-color="1" data-culture="Continuance" d="M 770,1355 762,1367 766,1372 772,1369 771,1377 780,1372 775,1378 760,1367 762,1354 770,1350 764,1354 Z"/>
  <path fill="transparent" stroke="none" fill-rule="evenodd" data-name="Territory-3-26" data-faction="The Azure Dominion" data-color="3" data-culture="Continuance" d="M 707,1363 705,1351 723,1356 712,1372 703,1372 Z"/>
  <path fill="transparent" stroke="none" fill-rule="evenodd" data-name="Violaris" data-faction="The Violet Principality" data-color="5" data-culture="Continuance" d="M 2638,1602 2634,1613 2614,1617 2607,1627 2584,1637 2587,1656 2570,1678 2571,1700 2557,1711 2539,1712 2524,1735 2494,1739 2462,1731 2454,1736 2461,1754 2433,1767 2383,1758 2365,1762 2330,1748 2333,1726 2319,1706 2320,1697 2338,1693 2348,1678 2375,1664 2385,1643 2376,1627 2369,1626 2375,1608 2350,1599 2331,1579 2352,1559 2348,1543 2356,1523 2330,1498 2337,1471 2352,1447 2341,1413 2314,1404 2310,1393 2322,1395 2347,1379 2347,1369 2361,1362 2361,1355 2398,1360 2398,1382 2421,1406 2422,1427 2440,1446 2440,1467 2458,1486 2482,1492 2486,1528 2512,1558 2524,1570 2552,1576 2570,1555 2595,1547 2615,1562 2662,1578 2653,1589 2637,1592 Z"/>
  <path fill="transparent" stroke="none" fill-rule="evenodd" data-name="Territory-1-36" data-faction="The Verdant Realm" data-color="1" data-culture="Continuance" d="M 984,1371 990,1364 985,1379 Z"/>
  <path fill="transparent" stroke="none" fill-rule="evenodd" data-name="Territory-1-37" data-faction="The Verdant Realm" data-color="1" data-culture="Continuance" d="M 879,1388 883,1386 886,1394 876,1398 Z"/>
  <path fill="transparent" stroke="none" fill-rule="evenodd" data-name="Territory-1-38" data-faction="The Verdant Realm" data-color="1" data-culture="Continuance" d="M 1362,1480 1363,1462 1387,1460 1400,1451 1397,1414 1421,1406 1430,1396 1455,1389 1468,1410 1502,1412 1513,1431 1532,1440 1540,1451 1532,1478 1557,1498 1594,1555 1591,1581 1597,1592 1590,1607 1596,1609 1597,1633 1558,1638 1556,1658 1532,1675 1526,1703 1513,1713 1486,1710 1472,1715 1452,1703 1432,1700 1423,1692 1423,1683 1412,1677 1366,1679 1364,1667 1350,1655 1348,1626 1350,1604 1356,1598 1350,1543 1365,1513 1358,1497 Z"/>
  <path fill="transparent" stroke="none" fill-rule="evenodd" data-name="Territory-1-39" data-faction="The Verdant Realm" data-color="1" data-culture="Continuance" d="M 819,1408 811,1403 814,1397 823,1403 822,1414 Z"/>
  <path fill="transparent" stroke="none" fill-rule="evenodd" data-name="Purplevast" data-faction="The Violet Principality" data-color="5" data-culture="Continuance" d="M 409,1428 399,1438 389,1434 390,1414 403,1400 416,1416 Z"/>
  <path fill="transparent" stroke="none" fill-rule="evenodd" data-name="Territory-1-40" data-faction="The Verdant Realm" data-color="1" data-culture="Continuance" d="M 803,1431 796,1409 806,1403 821,1424 815,1435 Z"/>
  <path fill="transparent" stroke="none" fill-rule="evenodd" data-name="Territory-3-28" data-faction="The Azure Dominion" data-color="3" data-culture="Continuance" d="M 2264,1526 2264,1508 2273,1488 2298,1480 2315,1466 2303,1447 2310,1440 2313,1414 2321,1406 2339,1412 2351,1450 2336,1472 2329,1498 2355,1522 2348,1566 2328,1578 2310,1576 2308,1596 2292,1601 2278,1615 2255,1616 2248,1608 2255,1572 2241,1567 2237,1559 2245,1552 2260,1553 Z"/>
  <path fill="transparent" stroke="none" fill-rule="evenodd" data-name="Scarleth" data-faction="The Crimson Sovereignty" data-color="4" data-culture="Continuance" d="M 1691,1634 1680,1633 1677,1619 1656,1610 1655,1602 1641,1593 1641,1567 1596,1559 1564,1506 1533,1479 1542,1451 1558,1451 1579,1461 1593,1444 1629,1426 1646,1428 1656,1440 1679,1446 1721,1413 1761,1413 1765,1444 1744,1473 1751,1484 1679,1509 1713,1514 1716,1547 1702,1563 1704,1578 1719,1594 1736,1629 1732,1640 1723,1642 Z"/>
  <path fill="transparent" stroke="none" fill-rule="evenodd" data-name="Vermoth" data-faction="The Crimson Sovereignty" data-color="4" data-culture="Continuance" d="M 2441,1449 2423,1427 2423,1411 2478,1422 2491,1419 2502,1427 2525,1413 2544,1430 2543,1453 2535,1461 2537,1476 2560,1479 2580,1490 2601,1473 2611,1449 2647,1434 2657,1424 2680,1437 2697,1438 2713,1460 2747,1483 2744,1497 2754,1511 2748,1521 2729,1528 2729,1539 2745,1552 2748,1569 2727,1572 2718,1564 2699,1580 2680,1570 2663,1579 2589,1546 2570,1554 2553,1575 2526,1570 2487,1529 2483,1493 2456,1484 2441,1468 Z"/>
  <path fill="transparent" stroke="none" fill-rule="evenodd" data-name="Territory-1-41" data-faction="The Verdant Realm" data-color="1" data-culture="Continuance" d="M 824,1421 828,1412 834,1415 831,1425 Z"/>
  <path fill="transparent" stroke="none" fill-rule="evenodd" data-name="Territory-5-5" data-faction="The Violet Principality" data-color="5" data-culture="Continuance" d="M 422,1421 425,1418 425,1426 419,1427 Z"/>
  <path fill="transparent" stroke="none" fill-rule="evenodd" data-name="Territory-2-26" data-faction="The Gilded League" data-color="2" data-culture="Continuance" d="M 2712,1603 2699,1582 2703,1572 2716,1565 2727,1573 2765,1569 2778,1548 2799,1539 2834,1553 2854,1554 2886,1539 2949,1545 2998,1531 3020,1533 3037,1525 3051,1506 3090,1494 3094,1481 3121,1462 3142,1431 3182,1419 3183,1456 3172,1488 3182,1500 3183,1531 3166,1563 3179,1586 3185,1621 3203,1626 3241,1658 3235,1724 3230,1739 3202,1763 3177,1767 3175,1780 3144,1795 3120,1789 3096,1801 3088,1811 3079,1847 3057,1846 3048,1832 3035,1826 3034,1836 3021,1847 3020,1864 2986,1871 2945,1870 2877,1859 2857,1850 2854,1839 2845,1839 2833,1817 2797,1797 2815,1765 2804,1749 2795,1746 2795,1735 2787,1727 2790,1693 2807,1681 2827,1685 2830,1691 2844,1682 2807,1650 2760,1635 2762,1626 2746,1620 2742,1608 Z M 3071,1664 3046,1710 3052,1738 3078,1728 3091,1710 3132,1699 3127,1687 3095,1676 3084,1660 Z"/>
  <path fill="transparent" stroke="none" fill-rule="evenodd" data-name="Territory-1-42" data-faction="The Verdant Realm" data-color="1" data-culture="Continuance" d="M 722,1438 731,1435 730,1450 721,1444 Z"/>
  <path fill="transparent" stroke="none" fill-rule="evenodd" data-name="Territory-3-29" data-faction="The Azure Dominion" data-color="3" data-culture="Continuance" d="M 3430,1572 3419,1557 3420,1541 3446,1509 3449,1476 3444,1452 3462,1446 3479,1453 3490,1435 3502,1434 3524,1446 3524,1464 3534,1469 3557,1457 3592,1458 3593,1480 3573,1490 3585,1489 3570,1506 3576,1511 3570,1527 3574,1534 3556,1549 3574,1543 3575,1552 3548,1561 3551,1571 3559,1574 3560,1591 3550,1594 3538,1631 3547,1632 3556,1619 3569,1622 3569,1647 3581,1678 3577,1689 3560,1692 3554,1712 3525,1712 3507,1720 3502,1695 3488,1689 3489,1677 3471,1661 3463,1644 3438,1639 3432,1645 3416,1645 3425,1615 3445,1607 Z"/>
  <path fill="transparent" stroke="none" fill-rule="evenodd" data-name="Territory-5-6" data-faction="The Violet Principality" data-color="5" data-culture="Continuance" d="M 612,1441 618,1438 617,1445 Z"/>
  <path fill="transparent" stroke="none" fill-rule="evenodd" data-name="Territory-1-43" data-faction="The Verdant Realm" data-color="1" data-culture="Continuance" d="M 2262,1525 2257,1553 2223,1549 2213,1540 2202,1550 2194,1547 2193,1537 2176,1537 2174,1516 2178,1510 2197,1509 2194,1500 2208,1488 2209,1461 2217,1466 2238,1462 2251,1452 2264,1457 2250,1480 2264,1504 Z"/>
  <path fill="transparent" stroke="none" fill-rule="evenodd" data-name="Territory-1-44" data-faction="The Verdant Realm" data-color="1" data-culture="Continuance" d="M 895,1476 897,1470 906,1474 899,1481 Z"/>
  <path fill="transparent" stroke="none" fill-rule="evenodd" data-name="Territory-3-30" data-faction="The Azure Dominion" data-color="3" data-culture="Continuance" d="M 1030,1665 1032,1655 1053,1645 1042,1626 1045,1603 1029,1596 1024,1580 991,1539 991,1530 1005,1514 991,1511 992,1503 986,1503 991,1497 1006,1489 1033,1490 1049,1501 1063,1484 1087,1476 1113,1499 1113,1512 1126,1521 1161,1514 1170,1505 1215,1505 1223,1514 1236,1515 1293,1488 1301,1490 1304,1500 1324,1502 1301,1553 1299,1589 1289,1597 1288,1620 1270,1662 1238,1682 1234,1706 1218,1715 1217,1728 1195,1732 1162,1726 1156,1735 1139,1740 1081,1730 1073,1713 1050,1726 1032,1697 1018,1687 Z"/>
  <path fill="transparent" stroke="none" fill-rule="evenodd" data-name="Territory-5-7" data-faction="The Violet Principality" data-color="5" data-culture="Continuance" d="M 374,1488 374,1493 364,1492 366,1479 375,1482 Z"/>
  <path fill="transparent" stroke="none" fill-rule="evenodd" data-name="Territory-1-45" data-faction="The Verdant Realm" data-color="1" data-culture="Continuance" d="M 772,1493 773,1486 780,1489 780,1495 Z"/>
  <path fill="transparent" stroke="none" fill-rule="evenodd" data-name="Territory-5-8" data-faction="The Violet Principality" data-color="5" data-culture="Continuance" d="M 517,1498 519,1491 533,1491 532,1497 Z"/>
  <path fill="transparent" stroke="none" fill-rule="evenodd" data-name="Territory-2-27" data-faction="The Gilded League" data-color="2" data-culture="Continuance" d="M 1269,1665 1289,1620 1290,1597 1300,1588 1302,1554 1313,1523 1327,1500 1357,1495 1364,1514 1349,1543 1356,1576 1347,1620 1349,1655 1362,1665 1366,1680 1412,1678 1422,1683 1431,1701 1480,1717 1480,1738 1487,1750 1497,1752 1502,1778 1525,1796 1529,1810 1543,1813 1553,1829 1530,1843 1526,1853 1509,1851 1507,1845 1512,1859 1500,1871 1473,1869 1479,1856 1463,1854 1456,1859 1453,1879 1440,1871 1448,1888 1435,1894 1426,1917 1390,1918 1372,1906 1370,1926 1361,1927 1367,1931 1362,1949 1347,1954 1343,1943 1307,1970 1296,1971 1280,1960 1271,1986 1249,1996 1241,1978 1251,1967 1246,1964 1251,1938 1239,1941 1236,1953 1224,1954 1214,1947 1217,1928 1211,1914 1224,1891 1229,1860 1219,1841 1215,1811 1220,1793 1217,1773 1227,1743 1218,1734 1218,1717 1234,1707 1238,1683 Z"/>
  <path fill="transparent" stroke="none" fill-rule="evenodd" data-name="Territory-5-9" data-faction="The Violet Principality" data-color="5" data-culture="Continuance" d="M 680,1535 667,1540 646,1530 630,1538 616,1523 635,1517 643,1524 649,1506 671,1504 680,1510 680,1520 686,1520 Z"/>
  <path fill="transparent" stroke="none" fill-rule="evenodd" data-name="Territory-1-46" data-faction="The Verdant Realm" data-color="1" data-culture="Continuance" d="M 773,1505 779,1506 775,1515 Z"/>
  <path fill="transparent" stroke="none" fill-rule="evenodd" data-name="Territory-3-31" data-faction="The Azure Dominion" data-color="3" data-culture="Continuance" d="M 3664,1530 3664,1519 3672,1513 3677,1517 3670,1527 3672,1537 3665,1538 Z"/>
  <path fill="transparent" stroke="none" fill-rule="evenodd" data-name="Territory-1-47" data-faction="The Verdant Realm" data-color="1" data-culture="Continuance" d="M 779,1518 791,1516 801,1527 785,1531 777,1524 Z"/>
  <path fill="transparent" stroke="none" fill-rule="evenodd" data-name="Embrath" data-faction="The Crimson Sovereignty" data-color="4" data-culture="Continuance" d="M 1029,1664 1016,1687 1044,1714 1052,1731 1050,1749 1060,1768 1071,1777 1110,1784 1103,1794 1114,1851 1101,1859 1100,1868 1084,1868 1080,1861 1064,1871 1067,1864 1041,1848 1039,1857 1032,1854 1032,1866 1024,1869 1009,1867 1007,1861 984,1862 982,1874 965,1879 962,1894 957,1882 954,1899 945,1891 934,1898 931,1880 912,1885 899,1877 901,1865 919,1859 924,1846 909,1856 853,1858 853,1876 846,1881 816,1863 820,1848 812,1842 807,1863 814,1873 805,1870 803,1825 812,1802 840,1788 842,1770 897,1754 915,1722 936,1709 921,1707 920,1675 880,1701 874,1698 876,1675 872,1669 861,1669 861,1663 880,1626 892,1623 886,1618 869,1623 864,1616 890,1606 896,1596 866,1599 862,1564 884,1558 904,1528 914,1529 922,1558 926,1544 937,1542 941,1547 939,1540 953,1537 965,1540 967,1549 971,1540 999,1548 1028,1596 1044,1603 1041,1628 1052,1646 1030,1656 Z"/>
  <path fill="transparent" stroke="none" fill-rule="evenodd" data-name="Territory-1-48" data-faction="The Verdant Realm" data-color="1" data-culture="Continuance" d="M 2158,1634 2153,1620 2136,1620 2096,1596 2100,1574 2123,1561 2118,1544 2151,1539 2147,1579 2159,1607 2181,1598 2187,1588 2199,1593 2203,1586 2225,1581 2228,1602 2248,1600 2253,1616 2275,1617 2293,1601 2307,1598 2309,1577 2331,1578 2347,1598 2374,1608 2367,1625 2378,1632 2384,1649 2377,1662 2347,1678 2338,1692 2320,1697 2286,1674 2264,1682 2203,1683 2175,1655 2154,1654 Z"/>
  <path fill="transparent" stroke="none" fill-rule="evenodd" data-name="Territory-3-32" data-faction="The Azure Dominion" data-color="3" data-culture="Continuance" d="M 1679,1633 1730,1641 1734,1657 1727,1683 1729,1712 1711,1723 1715,1765 1709,1773 1706,1806 1696,1822 1677,1832 1665,1861 1642,1870 1631,1892 1611,1879 1563,1880 1553,1894 1545,1882 1544,1837 1554,1825 1543,1811 1528,1809 1526,1796 1503,1778 1499,1753 1488,1749 1480,1737 1481,1718 1486,1711 1510,1715 1526,1705 1533,1674 1556,1658 1558,1639 1598,1632 1598,1613 1591,1607 1598,1592 1592,1581 1597,1562 1641,1568 1641,1594 1654,1602 1655,1611 1675,1618 Z"/>
  <path fill="transparent" stroke="none" fill-rule="evenodd" data-name="Territory-1-49" data-faction="The Verdant Realm" data-color="1" data-culture="Continuance" d="M 2639,1603 2639,1591 2654,1589 2681,1571 2705,1588 2711,1604 2736,1605 2746,1621 2761,1627 2760,1636 2807,1651 2843,1681 2841,1688 2830,1690 2827,1684 2807,1680 2789,1694 2785,1722 2795,1748 2803,1749 2814,1765 2795,1799 2837,1821 2837,1834 2811,1841 2779,1861 2764,1859 2767,1851 2762,1852 2750,1870 2728,1882 2714,1901 2679,1915 2658,1912 2624,1928 2611,1911 2600,1913 2597,1903 2579,1907 2570,1902 2564,1886 2569,1879 2567,1864 2548,1827 2545,1799 2526,1783 2538,1757 2524,1744 2524,1735 2538,1713 2556,1712 2572,1699 2571,1678 2588,1655 2585,1637 2608,1627 2613,1618 2635,1613 Z"/>
  <path fill="transparent" stroke="none" fill-rule="evenodd" data-name="Territory-3-33" data-faction="The Azure Dominion" data-color="3" data-culture="Continuance" d="M 3255,2096 3253,2056 3234,2013 3236,2003 3219,1985 3169,1994 3165,1968 3158,1961 3143,1961 3122,1938 3127,1900 3107,1876 3109,1865 3082,1848 3081,1842 3088,1813 3097,1801 3120,1790 3147,1795 3176,1780 3178,1768 3201,1764 3231,1738 3242,1661 3259,1652 3252,1622 3273,1626 3284,1615 3315,1612 3322,1605 3321,1588 3332,1583 3352,1612 3368,1612 3396,1625 3401,1645 3402,1736 3395,1816 3401,1860 3396,1924 3402,2010 3388,2053 3395,2066 3398,2108 3412,2128 3406,2163 3426,2178 3445,2180 3442,2213 3427,2225 3433,2278 3453,2280 3496,2262 3512,2280 3508,2299 3516,2316 3479,2343 3483,2372 3460,2406 3400,2409 3396,2442 3386,2462 3390,2501 3352,2507 3349,2499 3355,2485 3348,2469 3343,2474 3350,2484 3339,2490 3287,2487 3271,2461 3254,2456 3253,2434 3227,2417 3236,2389 3229,2373 3215,2362 3230,2310 3237,2303 3241,2277 3235,2262 3248,2244 3250,2222 3238,2169 3241,2153 3231,2140 3254,2130 Z"/>
  <path fill="transparent" stroke="none" fill-rule="evenodd" data-name="Territory-5-11" data-faction="The Violet Principality" data-color="5" data-culture="Continuance" d="M 455,1605 457,1598 445,1594 449,1586 477,1587 474,1594 501,1601 496,1609 471,1601 Z"/>
  <path fill="transparent" stroke="none" fill-rule="evenodd" data-name="Territory-5-12" data-faction="The Violet Principality" data-color="5" data-culture="Continuance" d="M 260,1696 252,1682 241,1683 240,1677 245,1664 252,1666 272,1653 266,1632 276,1629 278,1620 266,1613 263,1599 278,1593 301,1603 299,1628 316,1640 316,1646 307,1645 307,1661 313,1673 320,1672 328,1683 335,1681 344,1697 339,1709 328,1715 301,1703 280,1734 252,1740 247,1734 265,1720 Z"/>
  <path fill="transparent" stroke="none" fill-rule="evenodd" data-name="Territory-5-13" data-faction="The Violet Principality" data-color="5" data-culture="Continuance" d="M 532,1612 547,1604 562,1608 548,1611 541,1620 Z"/>
  <path fill="transparent" stroke="none" fill-rule="evenodd" data-name="Territory-1-50" data-faction="The Verdant Realm" data-color="1" data-culture="Continuance" d="M 3852,1725 3854,1729 3838,1743 3836,1757 3845,1759 3840,1777 3861,1768 3883,1775 3872,1821 3855,1838 3858,1847 3884,1851 3879,1893 3899,1915 3908,1912 3927,1922 3922,1934 3914,1935 3958,1946 3970,1940 3979,1964 3978,1990 3972,1992 3971,2003 3984,1996 4012,2013 4032,2002 4026,2017 4030,2038 4049,2066 4042,2081 4021,2091 4016,2112 4004,2103 3990,2112 3976,2151 3975,2177 3993,2222 3989,2233 3975,2235 3965,2224 3957,2293 3945,2305 3927,2303 3905,2312 3891,2337 3893,2346 3886,2350 3872,2336 3856,2338 3824,2364 3815,2355 3804,2320 3771,2322 3747,2296 3730,2312 3725,2351 3683,2349 3674,2388 3657,2386 3650,2395 3656,2412 3710,2435 3713,2443 3702,2439 3708,2445 3704,2453 3677,2445 3691,2460 3685,2468 3661,2462 3662,2485 3655,2498 3597,2508 3596,2522 3576,2513 3580,2501 3572,2477 3542,2501 3517,2496 3510,2489 3512,2482 3500,2487 3462,2471 3442,2474 3446,2465 3432,2476 3436,2482 3449,2481 3450,2487 3434,2499 3408,2473 3410,2484 3400,2482 3396,2467 3405,2451 3399,2434 3401,2409 3461,2406 3485,2370 3480,2343 3491,2331 3503,2331 3518,2314 3509,2298 3513,2281 3496,2261 3457,2273 3451,2280 3434,2277 3428,2224 3443,2213 3446,2180 3424,2177 3407,2163 3413,2128 3398,2105 3397,2070 3389,2054 3403,2009 3397,1923 3402,1856 3396,1814 3403,1735 3401,1649 3429,1647 3436,1640 3460,1643 3466,1656 3483,1669 3488,1691 3502,1696 3507,1720 3517,1720 3522,1713 3556,1712 3558,1722 3566,1721 3566,1734 3579,1736 3605,1728 3606,1709 3611,1706 3624,1706 3640,1719 3663,1716 3653,1692 3691,1688 3700,1679 3701,1669 3690,1651 3676,1651 3686,1616 3695,1619 3695,1632 3707,1644 3723,1647 3717,1644 3721,1638 3742,1635 3744,1648 3752,1640 3769,1683 3796,1687 3798,1670 3803,1668 3814,1681 3813,1698 3821,1709 3837,1711 Z"/>
  <path fill="transparent" stroke="none" fill-rule="evenodd" data-name="Territory-4-16" data-faction="The Crimson Sovereignty" data-color="4" data-culture="Continuance" d="M 733,1652 738,1652 740,1672 723,1666 718,1657 722,1646 Z"/>
  <path fill="transparent" stroke="none" fill-rule="evenodd" data-name="Territory-4-17" data-faction="The Crimson Sovereignty" data-color="4" data-culture="Continuance" d="M 784,1668 786,1674 781,1674 775,1662 784,1659 Z"/>
  <path fill="transparent" stroke="none" fill-rule="evenodd" data-name="Territory-5-14" data-faction="The Violet Principality" data-color="5" data-culture="Continuance" d="M 605,1706 604,1695 609,1694 615,1710 Z"/>
  <path fill="transparent" stroke="none" fill-rule="evenodd" data-name="Territory-1-51" data-faction="The Verdant Realm" data-color="1" data-culture="Continuance" d="M 1904,1972 1899,1991 1888,1998 1879,2030 1867,2042 1843,2036 1831,2049 1805,2055 1790,2054 1768,2038 1738,2043 1731,2074 1715,2086 1714,2097 1685,2103 1681,2109 1668,2090 1667,2069 1660,2058 1666,2045 1650,2057 1620,2034 1632,1994 1641,1986 1639,1965 1625,1954 1628,1933 1621,1942 1598,1949 1589,1946 1586,1933 1585,1943 1560,1939 1567,1922 1553,1911 1551,1901 1560,1895 1562,1881 1610,1880 1630,1894 1643,1869 1666,1862 1678,1831 1697,1822 1709,1799 1716,1764 1712,1722 1737,1704 1742,1713 1757,1712 1787,1747 1813,1749 1825,1793 1817,1806 1817,1818 1823,1822 1818,1848 1840,1879 1863,1894 1880,1927 1897,1927 1899,1936 1925,1955 1926,1963 1908,1965 Z"/>
  <path fill="transparent" stroke="none" fill-rule="evenodd" data-name="Territory-5-15" data-faction="The Violet Principality" data-color="5" data-culture="Continuance" d="M 1115,1850 1104,1795 1112,1785 1072,1776 1060,1767 1051,1749 1052,1728 1072,1713 1080,1731 1139,1741 1151,1739 1161,1727 1193,1733 1217,1729 1225,1744 1216,1774 1219,1795 1214,1811 1218,1842 1228,1861 1225,1886 1210,1914 1211,1936 1205,1934 1199,1911 1195,1933 1191,1918 1179,1915 1173,1895 1163,1900 1148,1897 1142,1886 1110,1863 Z"/>
  <path fill="transparent" stroke="none" fill-rule="evenodd" data-name="Territory-3-34" data-faction="The Azure Dominion" data-color="3" data-culture="Continuance" d="M 2465,1942 2442,1959 2434,1941 2409,1941 2383,1973 2396,1991 2418,1982 2424,1991 2424,2015 2446,2012 2451,2017 2446,2024 2451,2041 2462,2036 2494,2045 2492,2064 2475,2070 2429,2048 2426,2057 2411,2063 2403,2046 2387,2048 2386,2039 2369,2034 2374,2024 2342,2013 2340,2007 2347,2002 2329,1998 2318,1986 2298,1988 2292,1980 2269,1972 2267,1954 2254,1940 2254,1919 2267,1898 2264,1884 2297,1870 2300,1845 2288,1823 2295,1810 2307,1806 2318,1789 2328,1785 2323,1767 2331,1759 2330,1749 2341,1749 2361,1762 2381,1759 2426,1768 2461,1755 2456,1738 2461,1732 2496,1740 2515,1733 2534,1750 2536,1761 2525,1784 2544,1799 2563,1874 2555,1890 2554,1885 2548,1887 2544,1909 2530,1918 2508,1910 2492,1924 2480,1924 Z"/>
  <path fill="transparent" stroke="none" fill-rule="evenodd" data-name="Territory-4-18" data-faction="The Crimson Sovereignty" data-color="4" data-culture="Continuance" d="M 2319,1788 2287,1823 2299,1846 2297,1869 2263,1885 2266,1899 2252,1922 2253,1941 2271,1965 2268,1972 2240,1984 2223,1982 2214,2000 2197,2011 2166,2010 2127,2029 2116,2023 2097,2026 2092,2015 2076,2017 2061,2006 2011,2006 2007,1999 1995,1997 2000,1985 1952,1981 1954,1969 1946,1957 1936,1954 1928,1960 1900,1936 1898,1926 1881,1925 1864,1894 1842,1880 1818,1844 1824,1826 1818,1806 1826,1796 1820,1772 2008,1768 2062,1780 2130,1752 2156,1752 2183,1762 2195,1756 2226,1761 2232,1768 2272,1752 2329,1752 2330,1760 2322,1768 2327,1785 Z"/>
  <path fill="transparent" stroke="none" fill-rule="evenodd" data-name="Territory-4-19" data-faction="The Crimson Sovereignty" data-color="4" data-culture="Continuance" d="M 732,1776 728,1788 718,1781 715,1770 730,1767 Z"/>
  <path fill="transparent" stroke="none" fill-rule="evenodd" data-name="Territory-1-52" data-faction="The Verdant Realm" data-color="1" data-culture="Continuance" d="M 3254,2095 3253,2130 3234,2134 3230,2141 3240,2153 3237,2170 3244,2201 3231,2211 3212,2211 3195,2197 3171,2205 3171,2216 3151,2235 3124,2244 3111,2255 3120,2268 3138,2271 3132,2295 3118,2302 3095,2300 3077,2289 3073,2261 3081,2246 3097,2243 3101,2234 3077,2210 3080,2201 3055,2190 3037,2165 3018,2151 2990,2169 2976,2169 2958,2186 2945,2179 2935,2185 2903,2184 2868,2171 2863,2161 2822,2157 2803,2135 2791,2137 2784,2120 2789,2109 2803,2109 2817,2095 2828,2099 2851,2089 2858,2083 2860,2063 2880,2059 2864,2052 2860,2042 2880,2015 2885,1995 2902,1983 2896,1970 2885,1968 2882,1957 2855,1947 2849,1933 2852,1904 2837,1894 2849,1874 2847,1864 2858,1851 2882,1861 2983,1873 3001,1865 3021,1865 3021,1849 3036,1827 3052,1844 3081,1847 3108,1865 3106,1876 3126,1899 3120,1936 3142,1961 3163,1968 3171,1997 3218,1986 3235,2003 3239,2032 3252,2055 Z"/>
  <path fill="transparent" stroke="none" fill-rule="evenodd" data-name="Territory-4-20" data-faction="The Crimson Sovereignty" data-color="4" data-culture="Continuance" d="M 2631,1942 2627,1929 2635,1921 2699,1908 2722,1897 2726,1885 2750,1871 2758,1859 2781,1861 2810,1842 2842,1833 2845,1840 2853,1839 2857,1854 2846,1864 2848,1875 2836,1893 2836,1899 2851,1905 2848,1932 2853,1946 2882,1958 2885,1970 2896,1971 2901,1983 2884,1996 2878,2017 2863,2032 2858,2046 2877,2060 2861,2062 2852,2071 2856,2084 2829,2098 2820,2093 2804,2108 2791,2107 2781,2116 2773,2098 2741,2088 2747,2079 2739,2073 2725,2066 2707,2072 2687,2063 2693,2001 2688,1996 2665,1996 2659,1989 2646,1992 2640,1981 2643,1962 2649,1959 2638,1962 Z"/>
  <path fill="transparent" stroke="none" fill-rule="evenodd" data-name="Territory-2-28" data-faction="The Gilded League" data-color="2" data-culture="Continuance" d="M 0,2898 0,1846 9,1843 32,1846 32,2901 Z"/>
  <path fill="transparent" stroke="none" fill-rule="evenodd" data-name="Territory-3-35" data-faction="The Azure Dominion" data-color="3" data-culture="Continuance" d="M 240,1890 253,1862 277,1868 254,1887 263,1902 249,1905 250,1923 234,1921 232,1906 Z"/>
  <path fill="transparent" stroke="none" fill-rule="evenodd" data-name="Territory-3-36" data-faction="The Azure Dominion" data-color="3" data-culture="Continuance" d="M 223,1877 230,1875 226,1890 216,1892 213,1909 200,1911 201,1898 209,1890 198,1892 196,1882 208,1881 220,1870 225,1870 Z"/>
  <path fill="transparent" stroke="none" fill-rule="evenodd" data-name="Territory-4-21" data-faction="The Crimson Sovereignty" data-color="4" data-culture="Continuance" d="M 975,1882 988,1880 991,1891 969,1896 Z"/>
  <path fill="transparent" stroke="none" fill-rule="evenodd" data-name="Territory-1-53" data-faction="The Verdant Realm" data-color="1" data-culture="Continuance" d="M 1467,1958 1448,1961 1442,1951 1426,1955 1413,1943 1415,1928 1431,1919 1436,1894 1447,1889 1471,1894 1484,1907 1484,1916 1476,1919 1462,1942 Z"/>
  <path fill="transparent" stroke="none" fill-rule="evenodd" data-name="Territory-4-22" data-faction="The Crimson Sovereignty" data-color="4" data-culture="Continuance" d="M 1077,1927 1085,1928 1085,1936 1070,1932 1069,1926 Z"/>
  <path fill="transparent" stroke="none" fill-rule="evenodd" data-name="Territory-1-54" data-faction="The Verdant Realm" data-color="1" data-culture="Continuance" d="M 972,1944 967,1947 963,1936 977,1935 Z"/>
  <path fill="transparent" stroke="none" fill-rule="evenodd" data-name="Territory-4-23" data-faction="The Crimson Sovereignty" data-color="4" data-culture="Continuance" d="M 1062,1942 1058,1936 1068,1937 1066,1944 Z"/>
  <path fill="transparent" stroke="none" fill-rule="evenodd" data-name="Territory-3-37" data-faction="The Azure Dominion" data-color="3" data-culture="Continuance" d="M 1905,1973 1906,1966 1927,1964 1942,1955 1952,1968 1952,1982 2000,1986 1993,1997 2004,1998 2011,2007 2026,2002 2043,2010 2059,2007 2080,2019 2077,2054 2050,2077 2052,2104 2028,2129 2042,2141 2040,2151 2047,2155 2049,2173 2063,2188 2076,2188 2072,2199 2059,2201 2034,2191 2027,2177 2030,2161 2019,2177 2024,2187 1988,2207 1968,2193 1967,2170 1973,2166 1964,2166 1960,2176 1942,2182 1934,2194 1902,2193 1887,2175 1886,2160 1856,2147 1869,2141 1871,2129 1866,2122 1858,2124 1859,2114 1822,2126 1831,2146 1823,2136 1789,2141 1792,2128 1740,2097 1735,2063 1739,2043 1767,2038 1790,2055 1803,2057 1827,2052 1843,2037 1864,2044 1880,2030 1888,1999 1900,1991 Z"/>
  <path fill="transparent" stroke="none" fill-rule="evenodd" data-name="Territory-1-56" data-faction="The Verdant Realm" data-color="1" data-culture="Continuance" d="M 4022,1981 4014,1986 4011,1976 4021,1972 4021,1965 4032,1963 Z"/>
  <path fill="transparent" stroke="none" fill-rule="evenodd" data-name="Territory-1-57" data-faction="The Verdant Realm" data-color="1" data-culture="Continuance" d="M 4028,1993 4012,2004 4009,1992 4025,1989 4028,1977 4042,1966 Z"/>
  <path fill="transparent" stroke="none" fill-rule="evenodd" data-name="Territory-1-58" data-faction="The Verdant Realm" data-color="1" data-culture="Continuance" d="M 1007,1984 1014,1971 1018,1992 1007,1992 Z"/>
  <path fill="transparent" stroke="none" fill-rule="evenodd" data-name="Territory-1-59" data-faction="The Verdant Realm" data-color="1" data-culture="Continuance" d="M 2603,2280 2593,2298 2592,2317 2573,2321 2559,2352 2537,2354 2492,2297 2487,2317 2455,2320 2465,2311 2461,2300 2458,2308 2451,2305 2444,2315 2453,2273 2446,2280 2419,2277 2420,2264 2413,2269 2405,2252 2413,2244 2408,2245 2400,2224 2396,2240 2388,2246 2364,2246 2363,2260 2354,2270 2314,2273 2298,2266 2293,2276 2283,2270 2283,2228 2271,2237 2265,2236 2264,2228 2253,2244 2237,2251 2237,2257 2212,2270 2196,2252 2204,2270 2200,2279 2177,2270 2173,2240 2161,2229 2164,2250 2155,2254 2151,2266 2144,2264 2132,2276 2121,2243 2125,2223 2120,2226 2112,2214 2082,2200 2080,2189 2062,2186 2051,2175 2048,2155 2041,2151 2043,2142 2029,2128 2054,2101 2052,2076 2077,2055 2082,2017 2090,2017 2097,2027 2134,2028 2170,2010 2198,2011 2215,1999 2223,1982 2242,1985 2270,1973 2293,1981 2297,1988 2317,1987 2330,2000 2344,2001 2341,2014 2373,2026 2368,2035 2384,2039 2385,2048 2403,2047 2409,2063 2434,2050 2474,2071 2490,2067 2493,2056 2519,2056 2525,2069 2514,2083 2521,2090 2512,2090 2516,2100 2493,2107 2487,2115 2494,2142 2486,2151 2489,2157 2500,2157 2502,2171 2513,2170 2532,2183 2547,2188 2561,2180 2576,2186 2591,2183 2608,2195 2593,2221 2599,2237 2593,2261 Z"/>
  <path fill="transparent" stroke="none" fill-rule="evenodd" data-name="Territory-1-60" data-faction="The Verdant Realm" data-color="1" data-culture="Continuance" d="M 3997,1991 4004,1977 4008,1987 4002,1997 Z"/>
  <path fill="transparent" stroke="none" fill-rule="evenodd" data-name="Territory-1-61" data-faction="The Verdant Realm" data-color="1" data-culture="Continuance" d="M 995,1983 987,1985 988,1980 Z"/>
  <path fill="transparent" stroke="none" fill-rule="evenodd" data-name="Territory-1-62" data-faction="The Verdant Realm" data-color="1" data-culture="Continuance" d="M 4037,1985 4042,1981 4043,1987 Z"/>
  <path fill="transparent" stroke="none" fill-rule="evenodd" data-name="Territory-1-63" data-faction="The Verdant Realm" data-color="1" data-culture="Continuance" d="M 873,1987 878,2000 865,1990 868,1984 Z"/>
  <path fill="transparent" stroke="none" fill-rule="evenodd" data-name="Territory-5-16" data-faction="The Violet Principality" data-color="5" data-culture="Continuance" d="M 468,2032 471,2041 483,2046 484,2056 505,2062 471,2087 463,2084 462,2061 439,2046 442,2001 469,2006 Z"/>
  <path fill="transparent" stroke="none" fill-rule="evenodd" data-name="Territory-1-64" data-faction="The Verdant Realm" data-color="1" data-culture="Continuance" d="M 1004,2009 1009,2007 1009,2013 Z"/>
  <path fill="transparent" stroke="none" fill-rule="evenodd" data-name="Territory-5-17" data-faction="The Violet Principality" data-color="5" data-culture="Continuance" d="M 1047,2013 1057,2008 1059,2015 Z"/>
  <path fill="transparent" stroke="none" fill-rule="evenodd" data-name="Territory-1-65" data-faction="The Verdant Realm" data-color="1" data-culture="Continuance" d="M 692,2189 675,2180 649,2185 652,2153 666,2146 661,2140 679,2137 710,2108 741,2103 735,2093 743,2090 760,2063 783,2049 782,2039 792,2036 796,2026 789,2018 816,2018 824,2039 858,2055 864,2068 882,2075 898,2073 899,2128 908,2133 918,2125 918,2141 930,2141 934,2151 941,2148 939,2137 947,2145 937,2174 938,2190 904,2219 891,2223 834,2207 822,2213 822,2231 729,2231 698,2210 Z"/>
  <path fill="transparent" stroke="none" fill-rule="evenodd" data-name="Territory-5-18" data-faction="The Violet Principality" data-color="5" data-culture="Continuance" d="M 1113,2023 1110,2033 1106,2019 Z"/>
  <path fill="transparent" stroke="none" fill-rule="evenodd" data-name="Territory-1-66" data-faction="The Verdant Realm" data-color="1" data-culture="Continuance" d="M 1007,2033 1002,2031 1003,2022 1016,2030 Z"/>
  <path fill="transparent" stroke="none" fill-rule="evenodd" data-name="Territory-1-67" data-faction="The Verdant Realm" data-color="1" data-culture="Continuance" d="M 962,2040 948,2035 960,2031 968,2037 Z"/>
  <path fill="transparent" stroke="none" fill-rule="evenodd" data-name="Territory-1-68" data-faction="The Verdant Realm" data-color="1" data-culture="Continuance" d="M 1203,2043 1206,2046 1198,2050 Z"/>
  <path fill="transparent" stroke="none" fill-rule="evenodd" data-name="Territory-1-69" data-faction="The Verdant Realm" data-color="1" data-culture="Continuance" d="M 991,2059 973,2061 972,2056 981,2049 994,2055 Z"/>
  <path fill="transparent" stroke="none" fill-rule="evenodd" data-name="Territory-4-24" data-faction="The Crimson Sovereignty" data-color="4" data-culture="Continuance" d="M 1059,2068 1062,2061 1083,2064 1096,2073 1096,2083 1062,2081 Z"/>
  <path fill="transparent" stroke="none" fill-rule="evenodd" data-name="Territory-2-29" data-faction="The Gilded League" data-color="2" data-culture="Continuance" d="M 2491,2127 2492,2108 2516,2101 2513,2091 2524,2090 2515,2083 2522,2073 2556,2073 2574,2089 2627,2089 2635,2099 2652,2100 2658,2080 2673,2066 2708,2074 2726,2067 2745,2079 2738,2083 2740,2089 2774,2100 2781,2116 2754,2135 2750,2161 2763,2171 2743,2184 2723,2181 2697,2200 2635,2200 2567,2178 2551,2187 2531,2182 2513,2169 2503,2170 2503,2156 2490,2156 2487,2147 2496,2141 Z"/>
  <path fill="transparent" stroke="none" fill-rule="evenodd" data-name="Territory-1-70" data-faction="The Verdant Realm" data-color="1" data-culture="Continuance" d="M 985,2094 997,2091 1012,2099 1011,2106 1025,2099 1031,2104 1018,2115 987,2118 974,2109 980,2102 992,2103 Z"/>
  <path fill="transparent" stroke="none" fill-rule="evenodd" data-name="Territory-4-25" data-faction="The Crimson Sovereignty" data-color="4" data-culture="Continuance" d="M 1031,2107 1042,2101 1043,2110 1035,2117 1042,2127 1052,2124 1043,2135 1049,2153 1032,2145 1019,2151 1007,2141 995,2149 987,2146 990,2123 Z"/>
  <path fill="transparent" stroke="none" fill-rule="evenodd" data-name="Territory-3-38" data-faction="The Azure Dominion" data-color="3" data-culture="Continuance" d="M 2604,2281 2594,2262 2600,2240 2594,2219 2610,2196 2637,2202 2655,2197 2697,2201 2725,2181 2742,2185 2765,2170 2751,2160 2753,2144 2759,2140 2756,2134 2772,2121 2786,2121 2790,2137 2803,2136 2824,2159 2863,2162 2867,2171 2901,2185 2930,2187 2944,2180 2957,2189 2958,2206 2979,2228 2978,2268 2992,2284 3002,2311 3003,2332 2996,2339 2999,2364 2964,2388 2957,2385 2949,2401 2921,2404 2919,2412 2908,2415 2892,2392 2877,2405 2865,2388 2855,2394 2850,2378 2837,2382 2829,2372 2835,2391 2830,2397 2816,2392 2815,2418 2801,2430 2790,2428 2787,2437 2775,2436 2777,2431 2764,2433 2773,2425 2768,2410 2755,2410 2760,2392 2741,2376 2739,2391 2728,2400 2716,2393 2703,2421 2692,2422 2681,2410 2669,2414 2670,2398 2662,2407 2648,2392 2650,2363 2636,2346 2642,2375 2630,2362 2628,2370 2616,2366 2615,2351 2609,2368 2599,2370 2599,2376 2586,2375 2568,2355 2579,2338 2577,2323 2593,2316 2592,2303 Z"/>
  <path fill="transparent" stroke="none" fill-rule="evenodd" data-name="Territory-4-26" data-faction="The Crimson Sovereignty" data-color="4" data-culture="Continuance" d="M 1096,2126 1102,2125 1099,2138 1093,2137 Z"/>
  <path fill="transparent" stroke="none" fill-rule="evenodd" data-name="Territory-2-30" data-faction="The Gilded League" data-color="2" data-culture="Continuance" d="M 1180,2161 1170,2152 1171,2129 1182,2143 1179,2156 1188,2159 Z"/>
  <path fill="transparent" stroke="none" fill-rule="evenodd" data-name="Territory-2-31" data-faction="The Gilded League" data-color="2" data-culture="Continuance" d="M 1157,2343 1139,2320 1174,2300 1174,2289 1167,2287 1170,2273 1161,2270 1163,2258 1185,2279 1212,2226 1240,2228 1280,2203 1285,2206 1289,2192 1296,2199 1304,2192 1344,2186 1326,2180 1354,2174 1367,2154 1371,2157 1383,2144 1405,2139 1409,2146 1387,2165 1398,2168 1398,2194 1409,2193 1438,2206 1445,2225 1436,2227 1435,2258 1446,2259 1449,2266 1455,2258 1473,2261 1470,2281 1463,2288 1479,2304 1471,2320 1475,2330 1452,2336 1469,2363 1469,2383 1461,2397 1481,2395 1480,2408 1497,2401 1499,2422 1524,2421 1519,2431 1523,2448 1536,2419 1557,2410 1560,2402 1573,2408 1573,2419 1587,2422 1585,2412 1603,2395 1592,2385 1608,2377 1618,2384 1642,2385 1642,2395 1662,2382 1660,2374 1667,2371 1683,2378 1686,2390 1699,2393 1705,2404 1700,2415 1706,2419 1717,2421 1721,2410 1723,2420 1759,2422 1751,2469 1763,2468 1765,2489 1778,2503 1769,2530 1783,2534 1773,2562 1778,2573 1790,2578 1791,2591 1767,2597 1758,2590 1745,2602 1739,2590 1733,2590 1738,2606 1731,2606 1722,2623 1724,2631 1711,2641 1714,2646 1702,2655 1676,2658 1655,2672 1640,2663 1612,2667 1601,2654 1577,2652 1572,2637 1576,2621 1554,2610 1550,2589 1618,2577 1626,2564 1644,2555 1663,2556 1614,2552 1601,2545 1581,2552 1559,2542 1513,2558 1498,2555 1480,2574 1465,2571 1454,2576 1444,2594 1395,2611 1332,2611 1322,2596 1220,2600 1190,2622 1158,2601 1159,2568 1129,2551 1121,2536 1123,2528 1150,2516 1146,2497 1160,2489 1171,2463 1157,2447 1158,2408 1141,2399 1150,2384 Z"/>
  <path fill="transparent" stroke="none" fill-rule="evenodd" data-name="Territory-3-39" data-faction="The Azure Dominion" data-color="3" data-culture="Continuance" d="M 322,2373 329,2354 319,2339 328,2322 321,2310 313,2318 291,2315 296,2297 285,2302 272,2277 258,2276 272,2255 259,2215 270,2209 268,2190 281,2180 293,2180 303,2159 326,2163 349,2147 347,2163 356,2170 396,2163 400,2180 381,2175 383,2184 366,2215 377,2212 383,2221 382,2233 393,2259 390,2277 408,2300 408,2310 424,2333 434,2325 460,2321 474,2342 464,2344 447,2365 459,2385 456,2401 450,2403 457,2426 449,2434 428,2429 411,2406 375,2394 330,2407 331,2388 Z"/>
  <path fill="transparent" stroke="none" fill-rule="evenodd" data-name="Territory-2-32" data-faction="The Gilded League" data-color="2" data-culture="Continuance" d="M 2989,2281 2979,2268 2981,2230 2957,2202 2957,2187 2975,2170 2988,2170 3008,2154 3027,2157 3050,2187 3079,2201 3076,2209 3100,2234 3097,2243 3081,2246 3071,2263 3075,2288 3095,2301 3125,2302 3133,2294 3139,2270 3121,2267 3112,2254 3154,2233 3157,2224 3173,2215 3172,2205 3194,2198 3211,2212 3244,2206 3249,2217 3247,2244 3234,2265 3239,2288 3214,2362 3228,2373 3235,2391 3226,2418 3252,2434 3253,2457 3271,2462 3280,2483 3278,2506 3268,2517 3269,2525 3281,2528 3279,2545 3275,2566 3262,2579 3195,2619 3185,2618 3185,2612 3168,2600 3172,2570 3155,2575 3149,2585 3102,2588 3095,2591 3100,2598 3091,2625 3076,2630 3068,2661 3053,2660 3050,2645 3044,2658 3014,2655 3012,2641 3028,2634 3022,2615 3027,2613 3029,2589 3016,2609 3003,2615 3004,2632 2974,2606 2988,2582 2995,2581 2987,2578 2986,2553 3002,2533 3001,2509 3015,2486 3014,2473 2996,2448 3003,2424 2988,2407 3000,2363 2997,2339 3005,2325 Z"/>
  <path fill="transparent" stroke="none" fill-rule="evenodd" data-name="Territory-4-27" data-faction="The Crimson Sovereignty" data-color="4" data-culture="Continuance" d="M 1102,2179 1103,2169 1114,2171 1116,2159 1124,2160 1127,2171 Z"/>
  <path fill="transparent" stroke="none" fill-rule="evenodd" data-name="Territory-2-33" data-faction="The Gilded League" data-color="2" data-culture="Continuance" d="M 1310,2181 1305,2178 1308,2167 1319,2177 Z"/>
  <path fill="transparent" stroke="none" fill-rule="evenodd" data-name="Territory-1-71" data-faction="The Verdant Realm" data-color="1" data-culture="Continuance" d="M 945,2180 943,2171 952,2169 954,2181 Z"/>
  <path fill="transparent" stroke="none" fill-rule="evenodd" data-name="Territory-4-28" data-faction="The Crimson Sovereignty" data-color="4" data-culture="Continuance" d="M 1153,2342 1154,2367 1140,2400 1156,2407 1156,2447 1170,2463 1159,2490 1145,2498 1148,2517 1125,2526 1120,2536 1128,2552 1139,2553 1158,2568 1161,2594 1156,2601 1169,2614 1186,2616 1188,2624 1141,2656 1092,2649 1066,2654 1057,2673 1059,2690 1067,2698 1055,2714 1031,2728 1018,2728 1019,2708 1008,2695 995,2695 978,2683 963,2684 941,2700 929,2720 912,2726 847,2740 857,2720 836,2716 822,2730 788,2742 761,2729 753,2735 726,2737 718,2749 695,2755 680,2768 680,2749 710,2727 699,2704 715,2670 719,2639 712,2627 695,2622 694,2613 696,2596 709,2585 721,2560 720,2548 693,2555 680,2538 687,2530 699,2537 695,2524 702,2522 704,2509 715,2503 714,2509 721,2510 724,2497 719,2485 704,2480 701,2472 708,2464 675,2463 665,2477 666,2492 652,2482 647,2471 651,2462 637,2458 626,2439 605,2437 606,2424 594,2410 594,2401 585,2403 579,2395 594,2388 599,2378 592,2369 583,2370 590,2342 579,2342 578,2334 582,2322 602,2319 603,2311 657,2311 659,2285 680,2269 678,2254 664,2245 672,2237 661,2231 669,2224 677,2194 691,2191 697,2210 729,2232 758,2229 765,2235 800,2236 823,2232 823,2213 831,2209 853,2210 886,2224 903,2220 933,2192 946,2190 963,2176 970,2179 979,2170 989,2177 1005,2172 1018,2184 1027,2178 1036,2185 1033,2194 1045,2198 1036,2213 1050,2206 1064,2224 1076,2229 1071,2251 1064,2256 1078,2259 1078,2273 1095,2280 1107,2273 1109,2264 1114,2275 1102,2280 1112,2282 1121,2275 1123,2263 1133,2265 1136,2243 1144,2244 1145,2253 1169,2273 1166,2287 1173,2289 1173,2300 1138,2320 Z"/>
  <path fill="transparent" stroke="none" fill-rule="evenodd" data-name="Territory-3-40" data-faction="The Azure Dominion" data-color="3" data-culture="Continuance" d="M 174,2244 171,2236 180,2229 178,2219 195,2210 195,2220 181,2230 182,2254 Z"/>
  <path fill="transparent" stroke="none" fill-rule="evenodd" data-name="Territory-2-34" data-faction="The Gilded League" data-color="2" data-culture="Continuance" d="M 1243,2213 1237,2223 1221,2221 1232,2210 Z"/>
  <path fill="transparent" stroke="none" fill-rule="evenodd" data-name="Territory-4-29" data-faction="The Crimson Sovereignty" data-color="4" data-culture="Continuance" d="M 1091,2237 1085,2222 1072,2218 1086,2219 1097,2229 1106,2226 1108,2250 Z"/>
  <path fill="transparent" stroke="none" fill-rule="evenodd" data-name="Territory-2-35" data-faction="The Gilded League" data-color="2" data-culture="Continuance" d="M 1536,2235 1541,2232 1563,2249 1550,2274 1532,2282 1522,2276 1533,2262 1522,2258 1522,2247 Z"/>
  <path fill="transparent" stroke="none" fill-rule="evenodd" data-name="Territory-2-36" data-faction="The Gilded League" data-color="2" data-culture="Continuance" d="M 1192,2256 1181,2268 1173,2258 1173,2242 1199,2235 Z"/>
  <path fill="transparent" stroke="none" fill-rule="evenodd" data-name="Territory-4-30" data-faction="The Crimson Sovereignty" data-color="4" data-culture="Continuance" d="M 1078,2246 1086,2244 1081,2252 Z"/>
  <path fill="transparent" stroke="none" fill-rule="evenodd" data-name="Territory-4-31" data-faction="The Crimson Sovereignty" data-color="4" data-culture="Continuance" d="M 1126,2252 1123,2258 1121,2251 Z"/>
  <path fill="transparent" stroke="none" fill-rule="evenodd" data-name="Territory-4-32" data-faction="The Crimson Sovereignty" data-color="4" data-culture="Continuance" d="M 1095,2262 1088,2266 1090,2259 Z"/>
  <path fill="transparent" stroke="none" fill-rule="evenodd" data-name="Territory-1-72" data-faction="The Verdant Realm" data-color="1" data-culture="Continuance" d="M 3734,2321 3745,2308 3746,2321 3735,2331 Z"/>
  <path fill="transparent" stroke="none" fill-rule="evenodd" data-name="Territory-1-73" data-faction="The Verdant Realm" data-color="1" data-culture="Continuance" d="M 3761,2335 3757,2318 3766,2325 3767,2335 Z"/>
  <path fill="transparent" stroke="none" fill-rule="evenodd" data-name="Territory-1-74" data-faction="The Verdant Realm" data-color="1" data-culture="Continuance" d="M 3748,2335 3752,2328 3750,2342 Z"/>
  <path fill="transparent" stroke="none" fill-rule="evenodd" data-name="Territory-1-75" data-faction="The Verdant Realm" data-color="1" data-culture="Continuance" d="M 3734,2343 3732,2338 3744,2332 Z"/>
  <path fill="transparent" stroke="none" fill-rule="evenodd" data-name="Territory-1-76" data-faction="The Verdant Realm" data-color="1" data-culture="Continuance" d="M 3755,2360 3748,2359 3758,2341 3765,2353 Z"/>
  <path fill="transparent" stroke="none" fill-rule="evenodd" data-name="Territory-1-77" data-faction="The Verdant Realm" data-color="1" data-culture="Continuance" d="M 3740,2353 3738,2347 3744,2344 Z"/>
  <path fill="transparent" stroke="none" fill-rule="evenodd" data-name="Territory-1-78" data-faction="The Verdant Realm" data-color="1" data-culture="Continuance" d="M 3872,2367 3842,2359 3879,2361 Z"/>
  <path fill="transparent" stroke="none" fill-rule="evenodd" data-name="Territory-1-79" data-faction="The Verdant Realm" data-color="1" data-culture="Continuance" d="M 3727,2370 3711,2376 3724,2364 3729,2365 Z"/>
  <path fill="transparent" stroke="none" fill-rule="evenodd" data-name="Territory-3-41" data-faction="The Azure Dominion" data-color="3" data-culture="Continuance" d="M 2937,2435 2927,2430 2929,2418 2936,2417 2934,2409 2954,2405 2957,2393 2982,2381 2975,2404 2987,2423 2985,2447 2992,2450 2992,2463 2980,2472 2960,2470 2950,2478 2943,2468 2951,2454 2937,2445 Z"/>
  <path fill="transparent" stroke="none" fill-rule="evenodd" data-name="Territory-2-37" data-faction="The Gilded League" data-color="2" data-culture="Continuance" d="M 452,2555 448,2539 459,2551 Z"/>
  <path fill="transparent" stroke="none" fill-rule="evenodd" data-name="Territory-4-33" data-faction="The Crimson Sovereignty" data-color="4" data-culture="Continuance" d="M 1729,2836 1738,2825 1757,2826 1760,2815 1739,2807 1740,2800 1728,2791 1714,2789 1667,2759 1631,2750 1635,2735 1564,2743 1547,2739 1535,2719 1489,2719 1479,2687 1459,2682 1456,2675 1438,2668 1434,2656 1395,2640 1396,2625 1383,2618 1383,2612 1442,2596 1457,2574 1478,2576 1498,2556 1510,2560 1558,2543 1580,2553 1601,2546 1615,2553 1643,2554 1613,2577 1546,2593 1555,2612 1575,2620 1571,2636 1576,2652 1602,2655 1613,2668 1638,2664 1650,2673 1660,2672 1675,2659 1705,2654 1706,2648 1714,2647 1713,2639 1733,2641 1739,2657 1745,2657 1753,2644 1761,2644 1763,2654 1770,2653 1771,2643 1781,2635 1792,2647 1800,2646 1802,2632 1816,2622 1818,2613 1834,2618 1847,2609 1852,2611 1848,2624 1854,2641 1862,2612 1877,2606 1885,2609 1886,2600 1897,2593 1899,2577 1910,2577 1915,2584 1909,2573 1896,2567 1912,2546 1925,2567 1935,2564 1947,2573 1947,2590 1968,2596 1970,2630 1954,2642 1968,2641 1970,2648 1973,2642 1980,2646 2003,2633 2029,2653 2043,2649 2051,2656 2070,2657 2074,2664 2092,2662 2119,2671 2109,2676 2117,2697 2108,2688 2090,2691 2085,2713 2065,2708 2058,2721 2044,2724 2036,2718 2035,2724 2041,2736 2061,2738 2066,2750 2077,2756 2068,2769 2061,2802 2069,2810 2070,2829 2067,2840 2060,2842 2073,2864 2061,2891 2075,2879 2087,2878 2083,2885 2091,2900 2109,2913 2110,2922 2087,2933 2096,2944 2089,2956 2109,2966 2124,2953 2134,2962 2129,2976 2170,2976 2185,2984 2166,2989 2162,3007 2139,3003 2121,3023 2123,3038 2140,3046 2132,3065 2145,3073 2142,3090 2151,3104 2147,3118 2138,3120 2135,3128 2140,3150 2126,3162 2099,3160 2092,3171 2074,3179 2073,3190 2060,3188 2058,3198 2033,3208 2031,3181 2018,3175 2014,3161 1994,3172 1980,3156 1977,3139 1957,3146 1958,3156 1938,3189 1944,3198 1928,3191 1936,3182 1932,3164 1929,3181 1908,3191 1892,3182 1894,3168 1877,3186 1868,3180 1870,3173 1854,3180 1865,3161 1846,3149 1858,3138 1827,3140 1824,3102 1759,2998 1759,2977 1749,2947 1740,2937 1714,2928 1707,2917 1685,2909 1691,2893 1704,2881 1686,2864 1696,2851 1715,2850 Z"/>
  <path fill="transparent" stroke="none" fill-rule="evenodd" data-name="Territory-1-80" data-faction="The Verdant Realm" data-color="1" data-culture="Continuance" d="M 1728,2835 1718,2848 1699,2849 1685,2864 1702,2883 1684,2901 1684,2909 1704,2916 1713,2928 1741,2938 1748,2947 1757,2971 1758,2998 1823,3102 1827,3152 1815,3166 1796,3153 1807,3182 1793,3198 1784,3199 1784,3192 1773,3189 1755,3201 1730,3185 1708,3202 1697,3200 1696,3194 1678,3193 1678,3188 1687,3187 1687,3175 1704,3168 1691,3165 1676,3146 1667,3149 1668,3136 1650,3143 1650,3122 1659,3114 1649,3105 1626,3103 1624,3097 1609,3099 1600,3081 1589,3081 1586,3068 1592,3064 1586,3059 1593,3036 1569,3046 1545,3033 1533,3030 1528,3038 1513,3028 1509,3040 1494,3047 1491,3056 1475,3059 1451,3035 1459,3024 1443,3027 1435,3010 1437,2993 1424,2998 1421,2993 1411,2996 1408,2989 1393,2990 1383,2981 1393,2967 1378,2964 1386,2954 1356,2959 1358,2938 1343,2939 1335,2926 1321,2939 1286,2936 1287,2923 1276,2928 1276,2934 1261,2936 1251,2909 1246,2927 1227,2932 1229,2937 1185,2946 1174,2952 1176,2960 1153,2965 1146,2990 1112,3010 1104,2988 1109,2980 1106,2956 1085,2953 1070,2958 1069,2937 1058,2936 1062,2946 1052,2948 1037,2930 1030,2938 998,2944 990,2944 995,2932 968,2937 963,2943 957,2934 945,2952 924,2956 948,2911 918,2921 905,2916 902,2903 865,2905 853,2892 860,2879 844,2890 836,2878 837,2890 818,2889 813,2883 810,2889 795,2890 799,2871 778,2880 771,2893 758,2890 747,2874 750,2863 760,2859 761,2846 751,2834 732,2830 730,2819 704,2797 684,2768 693,2757 718,2750 724,2739 757,2731 778,2734 787,2744 821,2731 836,2717 856,2721 845,2740 908,2728 929,2721 931,2712 961,2685 977,2684 990,2694 1008,2696 1019,2712 1017,2729 1027,2730 1056,2714 1068,2698 1059,2688 1058,2669 1069,2653 1117,2651 1137,2658 1203,2618 1207,2607 1219,2601 1322,2597 1331,2612 1373,2610 1383,2614 1383,2620 1392,2620 1395,2642 1432,2656 1438,2670 1477,2688 1489,2721 1535,2720 1547,2740 1565,2744 1635,2736 1630,2751 1668,2760 1716,2791 1728,2792 1737,2807 1759,2815 1758,2825 1738,2824 Z"/>
  <path fill="transparent" stroke="none" fill-rule="evenodd" data-name="Territory-2-38" data-faction="The Gilded League" data-color="2" data-culture="Continuance" d="M 325,2713 329,2702 347,2696 374,2699 352,2684 346,2671 355,2673 362,2655 383,2655 383,2648 392,2643 426,2646 434,2650 430,2659 443,2662 465,2650 487,2675 495,2675 497,2637 528,2639 542,2666 545,2653 558,2661 586,2658 591,2665 642,2647 657,2650 656,2622 668,2618 659,2613 659,2605 682,2604 690,2607 697,2625 710,2627 718,2638 714,2672 698,2706 709,2728 679,2750 679,2772 651,2792 633,2795 621,2807 565,2794 544,2800 541,2790 526,2780 534,2764 511,2758 476,2768 469,2783 452,2785 439,2772 420,2767 409,2773 382,2771 363,2787 339,2788 319,2779 295,2779 279,2773 275,2764 261,2763 233,2786 243,2807 210,2815 193,2812 150,2843 146,2827 120,2844 117,2840 125,2832 112,2831 107,2840 88,2848 117,2803 129,2801 135,2788 150,2790 143,2786 148,2774 142,2771 150,2760 160,2760 162,2776 199,2776 222,2753 206,2741 248,2743 257,2732 283,2740 282,2734 296,2729 299,2719 320,2726 327,2722 Z"/>
  <path fill="transparent" stroke="none" fill-rule="evenodd" data-name="Territory-1-81" data-faction="The Verdant Realm" data-color="1" data-culture="Continuance" d="M 3771,2686 3764,2691 3765,2681 Z"/>
  <path fill="transparent" stroke="none" fill-rule="evenodd" data-name="Territory-2-39" data-faction="The Gilded League" data-color="2" data-culture="Continuance" d="M 218,2712 221,2702 251,2685 264,2692 274,2690 259,2700 275,2702 277,2718 250,2724 245,2732 213,2734 209,2725 Z"/>
  <path fill="transparent" stroke="none" fill-rule="evenodd" data-name="Territory-2-40" data-faction="The Gilded League" data-color="2" data-culture="Continuance" d="M 292,2717 283,2711 284,2698 296,2690 300,2711 Z"/>
  <path fill="transparent" stroke="none" fill-rule="evenodd" data-name="Territory-1-82" data-faction="The Verdant Realm" data-color="1" data-culture="Continuance" d="M 3766,2710 3771,2693 3775,2717 Z"/>
  <path fill="transparent" stroke="none" fill-rule="evenodd" data-name="Territory-4-34" data-faction="The Crimson Sovereignty" data-color="4" data-culture="Continuance" d="M 628,2866 634,2864 629,2862 631,2854 605,2861 606,2839 585,2834 610,2827 615,2815 604,2815 576,2826 575,2834 551,2850 542,2850 540,2838 531,2840 529,2833 508,2860 497,2846 490,2847 488,2860 477,2858 466,2867 457,2867 457,2860 446,2862 444,2894 436,2902 436,2895 427,2892 431,2878 416,2878 413,2872 402,2880 392,2877 392,2847 373,2852 364,2846 364,2834 381,2814 364,2785 381,2772 404,2775 416,2768 439,2773 450,2785 469,2784 476,2769 511,2759 533,2765 524,2779 540,2790 541,2800 564,2795 620,2808 634,2795 651,2792 684,2771 707,2802 729,2819 732,2831 747,2833 761,2848 746,2875 752,2888 737,2901 716,2878 697,2881 682,2876 688,2854 666,2869 665,2879 645,2884 625,2873 Z"/>
  <path fill="transparent" stroke="none" fill-rule="evenodd" data-name="Territory-1-84" data-faction="The Verdant Realm" data-color="1" data-culture="Continuance" d="M 38,2897 56,2890 56,2867 69,2854 84,2852 94,2854 92,2859 102,2856 120,2862 147,2850 168,2833 168,2827 192,2813 208,2816 243,2807 234,2785 260,2764 275,2765 278,2773 292,2779 320,2780 331,2789 364,2787 373,2809 380,2812 353,2847 342,2845 343,2838 338,2843 321,2842 322,2833 306,2822 287,2838 283,2830 273,2828 285,2812 253,2821 257,2829 247,2872 204,2887 182,2903 197,2927 192,2949 165,2957 121,2935 126,2968 106,2986 89,2983 63,2960 32,2960 32,2900 Z M 180,2837 161,2843 155,2847 161,2848 192,2834 227,2830 220,2822 204,2821 195,2831 183,2827 Z M 76,2857 71,2862 78,2861 Z"/>
  <path fill="transparent" stroke="none" fill-rule="evenodd" data-name="Territory-4-35" data-faction="The Crimson Sovereignty" data-color="4" data-culture="Continuance" d="M 564,2850 571,2846 572,2853 563,2854 Z"/>
  <path fill="transparent" stroke="none" fill-rule="evenodd" data-name="Territory-4-36" data-faction="The Crimson Sovereignty" data-color="4" data-culture="Continuance" d="M 511,2880 526,2875 527,2865 535,2872 549,2872 545,2883 524,2879 523,2884 502,2887 Z"/>
  <path fill="transparent" stroke="none" fill-rule="evenodd" data-name="Territory-4-37" data-faction="The Crimson Sovereignty" data-color="4" data-culture="Continuance" d="M 666,2895 651,2900 652,2893 Z"/>
  <path fill="transparent" stroke="none" fill-rule="evenodd" data-name="Territory-1-85" data-faction="The Verdant Realm" data-color="1" data-culture="Continuance" d="M 2555,2958 2538,2968 2465,2971 2434,2979 2429,2999 2418,3007 2428,3022 2424,3043 2409,3053 2355,3059 2334,3084 2280,3084 2278,3068 2240,3070 2229,3065 2207,3030 2198,2993 2207,2947 2226,2934 2268,2923 2539,2917 2560,2933 Z M 2248,2989 2258,3019 2301,3016 2358,2982 2369,2968 2266,2974 2249,2980 Z"/>
  <path fill="transparent" stroke="none" fill-rule="evenodd" data-name="Territory-1-86" data-faction="The Verdant Realm" data-color="1" data-culture="Continuance" d="M 1036,2948 1042,2945 1035,2953 Z"/>
  <path fill="transparent" stroke="none" fill-rule="evenodd" data-name="Territory-1-87" data-faction="The Verdant Realm" data-color="1" data-culture="Continuance" d="M 1195,2958 1213,2951 1199,2961 Z"/>
  <path fill="transparent" stroke="none" fill-rule="evenodd" data-name="Territory-1-88" data-faction="The Verdant Realm" data-color="1" data-culture="Continuance" d="M 1010,2969 1002,2980 992,2978 986,2987 972,2990 962,2975 937,2965 945,2960 968,2967 995,2954 1015,2953 1008,2960 Z"/>
  <path fill="transparent" stroke="none" fill-rule="evenodd" data-name="Territory-1-89" data-faction="The Verdant Realm" data-color="1" data-culture="Continuance" d="M 970,2955 976,2958 967,2960 Z"/>
  <path fill="transparent" stroke="none" fill-rule="evenodd" data-name="Territory-1-90" data-faction="The Verdant Realm" data-color="1" data-culture="Continuance" d="M 1249,2964 1256,2955 1271,2961 Z"/>
  <path fill="transparent" stroke="none" fill-rule="evenodd" data-name="Territory-1-91" data-faction="The Verdant Realm" data-color="1" data-culture="Continuance" d="M 1334,2960 1342,2970 1335,2968 Z"/>
  <path fill="transparent" stroke="none" fill-rule="evenodd" data-name="Territory-1-92" data-faction="The Verdant Realm" data-color="1" data-culture="Continuance" d="M 913,2971 918,2965 919,2975 Z"/>
  <path fill="transparent" stroke="none" fill-rule="evenodd" data-name="Territory-1-93" data-faction="The Verdant Realm" data-color="1" data-culture="Continuance" d="M 1072,2981 1085,2968 1095,2968 1096,2981 1089,2990 1070,2988 Z"/>
  <path fill="transparent" stroke="none" fill-rule="evenodd" data-name="Territory-1-94" data-faction="The Verdant Realm" data-color="1" data-culture="Continuance" d="M 1182,3021 1174,3015 1159,3016 1178,3003 1180,2988 1198,2987 1206,2980 1212,2993 1238,3000 1274,2984 1240,2987 1237,2978 1255,2972 1298,2981 1328,2972 1345,2984 1360,2986 1362,2999 1414,3009 1410,3030 1399,3037 1368,3028 1335,3038 1334,3031 1324,3033 1324,3027 1304,3019 1312,3027 1308,3033 1284,3036 1261,3024 1262,3034 1256,3034 1245,3023 1238,3036 1228,3040 1230,3034 1220,3029 1224,3020 1206,3022 1217,3007 1193,3022 Z"/>
  <path fill="transparent" stroke="none" fill-rule="evenodd" data-name="Territory-1-95" data-faction="The Verdant Realm" data-color="1" data-culture="Continuance" d="M 1037,2998 1031,2995 1032,2988 1047,2983 1051,2994 Z"/>
  <path fill="transparent" stroke="none" fill-rule="evenodd" data-name="Territory-1-96" data-faction="The Verdant Realm" data-color="1" data-culture="Continuance" d="M 1012,3005 999,2997 1024,3003 Z"/>
  <path fill="transparent" stroke="none" fill-rule="evenodd" data-name="Territory-1-97" data-faction="The Verdant Realm" data-color="1" data-culture="Continuance" d="M 1130,3012 1127,3009 1137,3006 Z"/>
  <path fill="transparent" stroke="none" fill-rule="evenodd" data-name="Territory-1-98" data-faction="The Verdant Realm" data-color="1" data-culture="Continuance" d="M 1434,3037 1439,3028 1440,3037 Z"/>
  <path fill="transparent" stroke="none" fill-rule="evenodd" data-name="Territory-1-100" data-faction="The Verdant Realm" data-color="1" data-culture="Continuance" d="M 1512,3042 1517,3040 1518,3045 1509,3049 Z"/>
  <path fill="transparent" stroke="none" fill-rule="evenodd" data-name="Territory-1-101" data-faction="The Verdant Realm" data-color="1" data-culture="Continuance" d="M 1382,3048 1382,3043 1392,3045 Z"/>
  <path fill="transparent" stroke="none" fill-rule="evenodd" data-name="Territory-1-102" data-faction="The Verdant Realm" data-color="1" data-culture="Continuance" d="M 1512,3056 1527,3044 1554,3049 1551,3058 1537,3064 1506,3066 1502,3060 Z"/>
  <path fill="transparent" stroke="none" fill-rule="evenodd" data-name="Territory-4-38" data-faction="The Crimson Sovereignty" data-color="4" data-culture="Continuance" d="M 1965,3177 1971,3170 1981,3172 1985,3180 1955,3190 Z"/>
  <path fill="transparent" stroke="none" fill-rule="evenodd" data-name="Territory-4-39" data-faction="The Crimson Sovereignty" data-color="4" data-culture="Continuance" d="M 668,3206 665,3188 677,3186 675,3193 684,3191 686,3199 699,3202 699,3214 692,3215 685,3202 682,3208 Z"/>
  <path fill="transparent" stroke="none" fill-rule="evenodd" data-name="Territory-4-40" data-faction="The Crimson Sovereignty" data-color="4" data-culture="Continuance" d="M 2167,3242 2154,3237 2155,3229 2173,3238 2174,3249 Z"/>
  <path fill="transparent" stroke="none" fill-rule="evenodd" data-name="Territory-4-41" data-faction="The Crimson Sovereignty" data-color="4" data-culture="Continuance" d="M 685,3247 688,3251 671,3259 669,3251 Z"/>
  <path fill="transparent" stroke="none" fill-rule="evenodd" data-name="Territory-4-42" data-faction="The Crimson Sovereignty" data-color="4" data-culture="Continuance" d="M 2179,3307 2181,3301 2195,3304 2199,3318 2180,3318 Z"/>
</svg>
